<svg version="1.1" xmlns="http://www.w3.org/2000/svg" viewBox="0 0 1060 840" width="1060" height="840">
  <!-- svg-source:excalidraw -->
  
  <defs>
    <style>
      @font-face {
        font-family: "Virgil";
        src: url("/dist/excalidraw-assets/Virgil.woff2");
      }
      @font-face {
        font-family: "Cascadia";
        src: url("/dist/excalidraw-assets/Cascadia.woff2");
      }
      @font-face {
        font-family: "GoogleSans_Regular";
        src: url("/dist/excalidraw-assets/GoogleSans_Regular.ttf");
      }
      @font-face {
        font-family: "GoogleSans_Medium";
        src: url("/dist/excalidraw-assets/GoogleSans_Medium.ttf");
      }
    </style>
  </defs>
  <rect x="0" y="0" width="1060" height="840" fill="transparent"></rect><g stroke-linecap="round" transform="translate(10 10) rotate(0 520 410)"><path d="M0 0 L1040 0 L1040 820 L0 820" stroke="none" stroke-width="0" fill="#FFF"></path><path d="M0 0 C302.64 0, 605.28 0, 1040 0 M0 0 C405.91 0, 811.81 0, 1040 0 M1040 0 C1040 224.04, 1040 448.09, 1040 820 M1040 0 C1040 278.94, 1040 557.88, 1040 820 M1040 820 C801 820, 561.99 820, 0 820 M1040 820 C824.69 820, 609.38 820, 0 820 M0 820 C0 564.13, 0 308.26, 0 0 M0 820 C0 587.95, 0 355.89, 0 0" stroke="#d5d7dc" stroke-width="2" fill="none"></path></g><g stroke-linecap="round" transform="translate(30 210) rotate(0 500 300)"><path d="M0 0 L1000 0 L1000 600 L0 600" stroke="none" stroke-width="0" fill="#f1f3f4"></path><path d="M0 0 C248.82 0, 497.64 0, 1000 0 M0 0 C324.14 0, 648.28 0, 1000 0 M1000 0 C1000 145.23, 1000 290.46, 1000 600 M1000 0 C1000 121.11, 1000 242.21, 1000 600 M1000 600 C769.23 600, 538.46 600, 0 600 M1000 600 C612.04 600, 224.08 600, 0 600 M0 600 C0 366.93, 0 133.86, 0 0 M0 600 C0 440.17, 0 280.34, 0 0" stroke="#FFFFFF" stroke-width="2" fill="none"></path></g><g stroke-opacity="0.8" fill-opacity="0.8" transform="translate(50 230) rotate(0 95.5 11.5)"><text x="0" y="19" font-family="Helvetica, Segoe UI Emoji" font-size="20px" fill="#202124" text-anchor="start" style="white-space: pre;" direction="ltr">Google Cloud Project</text></g><g stroke-linecap="round" transform="translate(50 270) rotate(0 480 260)"><path d="M0 0 L960 0 L960 520 L0 520" stroke="none" stroke-width="0" fill="#d2e3fc"></path><path d="M0 0 C307.79 0, 615.58 0, 960 0 M0 0 C259.3 0, 518.61 0, 960 0 M960 0 C960 176.54, 960 353.08, 960 520 M960 0 C960 113.58, 960 227.16, 960 520 M960 520 C658.05 520, 356.09 520, 0 520 M960 520 C750.86 520, 541.72 520, 0 520 M0 520 C0 331.93, 0 143.85, 0 0 M0 520 C0 325.58, 0 131.17, 0 0" stroke="#4285f4" stroke-width="2" fill="none"></path></g><g stroke-opacity="0.8" fill-opacity="0.8" transform="translate(470 290) rotate(0 53 9.5)"><text x="0" y="15" font-family="Helvetica, Segoe UI Emoji" font-size="16px" fill="#202124" text-anchor="start" style="white-space: pre;" direction="ltr">APPLICATION</text></g><g stroke-linecap="round" transform="translate(30 30) rotate(0 500 80)"><path d="M0 0 L1000 0 L1000 160 L0 160" stroke="none" stroke-width="0" fill="#d2e3fc"></path><path d="M0 0 C338.52 0, 677.05 0, 1000 0 M0 0 C387.47 0, 774.94 0, 1000 0 M1000 0 C1000 37.72, 1000 75.44, 1000 160 M1000 0 C1000 57.21, 1000 114.42, 1000 160 M1000 160 C610.24 160, 220.48 160, 0 160 M1000 160 C626.3 160, 252.6 160, 0 160 M0 160 C0 112.07, 0 64.13, 0 0 M0 160 C0 100.42, 0 40.85, 0 0" stroke="#4285f4" stroke-width="2" fill="none"></path></g><g stroke-opacity="0.8" fill-opacity="0.8" transform="translate(470 50) rotate(0 48.5 9.5)"><text x="0" y="15" font-family="Helvetica, Segoe UI Emoji" font-size="16.444444444444446px" fill="#202124" text-anchor="start" style="white-space: pre;" direction="ltr">CONSUMER</text></g><g stroke-linecap="round" transform="translate(290 250) rotate(0 16 16)"><path d="M32 16 C32 16.93, 31.92 17.87, 31.76 18.78 C31.6 19.69, 31.35 20.6, 31.04 21.47 C30.72 22.34, 30.32 23.2, 29.86 24 C29.39 24.8, 28.85 25.58, 28.26 26.28 C27.66 26.99, 26.99 27.66, 26.28 28.26 C25.58 28.85, 24.8 29.39, 24 29.86 C23.2 30.32, 22.34 30.72, 21.47 31.04 C20.6 31.35, 19.69 31.6, 18.78 31.76 C17.87 31.92, 16.93 32, 16 32 C15.07 32, 14.13 31.92, 13.22 31.76 C12.31 31.6, 11.4 31.35, 10.53 31.04 C9.66 30.72, 8.8 30.32, 8 29.86 C7.2 29.39, 6.42 28.85, 5.72 28.26 C5.01 27.66, 4.34 26.99, 3.74 26.28 C3.15 25.58, 2.61 24.8, 2.14 24 C1.68 23.2, 1.28 22.34, 0.96 21.47 C0.65 20.6, 0.4 19.69, 0.24 18.78 C0.08 17.87, 0 16.93, 0 16 C0 15.07, 0.08 14.13, 0.24 13.22 C0.4 12.31, 0.65 11.4, 0.96 10.53 C1.28 9.66, 1.68 8.8, 2.14 8 C2.61 7.2, 3.15 6.42, 3.74 5.72 C4.34 5.01, 5.01 4.34, 5.72 3.74 C6.42 3.15, 7.2 2.61, 8 2.14 C8.8 1.68, 9.66 1.28, 10.53 0.96 C11.4 0.65, 12.31 0.4, 13.22 0.24 C14.13 0.08, 15.07 0, 16 0 C16.93 0, 17.87 0.08, 18.78 0.24 C19.69 0.4, 20.6 0.65, 21.47 0.96 C22.34 1.28, 23.2 1.68, 24 2.14 C24.8 2.61, 25.58 3.15, 26.28 3.74 C26.99 4.34, 27.66 5.01, 28.26 5.72 C28.85 6.42, 29.39 7.2, 29.86 8 C30.32 8.8, 30.72 9.66, 31.04 10.53 C31.35 11.4, 31.6 12.31, 31.76 13.22 C31.92 14.13, 31.96 15.54, 32 16 C32.04 16.46, 32.04 15.54, 32 16" stroke="none" stroke-width="0" fill="#202124"></path><path d="M32 16 C32 16.93, 31.92 17.87, 31.76 18.78 C31.6 19.69, 31.35 20.6, 31.04 21.47 C30.72 22.34, 30.32 23.2, 29.86 24 C29.39 24.8, 28.85 25.58, 28.26 26.28 C27.66 26.99, 26.99 27.66, 26.28 28.26 C25.58 28.85, 24.8 29.39, 24 29.86 C23.2 30.32, 22.34 30.72, 21.47 31.04 C20.6 31.35, 19.69 31.6, 18.78 31.76 C17.87 31.92, 16.93 32, 16 32 C15.07 32, 14.13 31.92, 13.22 31.76 C12.31 31.6, 11.4 31.35, 10.53 31.04 C9.66 30.72, 8.8 30.32, 8 29.86 C7.2 29.39, 6.42 28.85, 5.72 28.26 C5.01 27.66, 4.34 26.99, 3.74 26.28 C3.15 25.58, 2.61 24.8, 2.14 24 C1.68 23.2, 1.28 22.34, 0.96 21.47 C0.65 20.6, 0.4 19.69, 0.24 18.78 C0.08 17.87, 0 16.93, 0 16 C0 15.07, 0.08 14.13, 0.24 13.22 C0.4 12.31, 0.65 11.4, 0.96 10.53 C1.28 9.66, 1.68 8.8, 2.14 8 C2.61 7.2, 3.15 6.42, 3.74 5.72 C4.34 5.01, 5.01 4.34, 5.72 3.74 C6.42 3.15, 7.2 2.61, 8 2.14 C8.8 1.68, 9.66 1.28, 10.53 0.96 C11.4 0.65, 12.31 0.4, 13.22 0.24 C14.13 0.08, 15.07 0, 16 0 C16.93 0, 17.87 0.08, 18.78 0.24 C19.69 0.4, 20.6 0.65, 21.47 0.96 C22.34 1.28, 23.2 1.68, 24 2.14 C24.8 2.61, 25.58 3.15, 26.28 3.74 C26.99 4.34, 27.66 5.01, 28.26 5.72 C28.85 6.42, 29.39 7.2, 29.86 8 C30.32 8.8, 30.72 9.66, 31.04 10.53 C31.35 11.4, 31.6 12.31, 31.76 13.22 C31.92 14.13, 31.96 15.54, 32 16 C32.04 16.46, 32.04 15.54, 32 16" stroke="#202124" stroke-width="2" fill="none"></path></g><g transform="translate(300.5 258) rotate(0 4.5 8)"><text x="4.5" y="13" font-family="Helvetica, Segoe UI Emoji" font-size="14px" fill="#FFFFFF" text-anchor="middle" style="white-space: pre;" direction="ltr">1</text></g><g stroke-linecap="round" transform="translate(370 350) rotate(0 16 16)"><path d="M32 16 C32 16.93, 31.92 17.87, 31.76 18.78 C31.6 19.69, 31.35 20.6, 31.04 21.47 C30.72 22.34, 30.32 23.2, 29.86 24 C29.39 24.8, 28.85 25.58, 28.26 26.28 C27.66 26.99, 26.99 27.66, 26.28 28.26 C25.58 28.85, 24.8 29.39, 24 29.86 C23.2 30.32, 22.34 30.72, 21.47 31.04 C20.6 31.35, 19.69 31.6, 18.78 31.76 C17.87 31.92, 16.93 32, 16 32 C15.07 32, 14.13 31.92, 13.22 31.76 C12.31 31.6, 11.4 31.35, 10.53 31.04 C9.66 30.72, 8.8 30.32, 8 29.86 C7.2 29.39, 6.42 28.85, 5.72 28.26 C5.01 27.66, 4.34 26.99, 3.74 26.28 C3.15 25.58, 2.61 24.8, 2.14 24 C1.68 23.2, 1.28 22.34, 0.96 21.47 C0.65 20.6, 0.4 19.69, 0.24 18.78 C0.08 17.87, 0 16.93, 0 16 C0 15.07, 0.08 14.13, 0.24 13.22 C0.4 12.31, 0.65 11.4, 0.96 10.53 C1.28 9.66, 1.68 8.8, 2.14 8 C2.61 7.2, 3.15 6.42, 3.74 5.72 C4.34 5.01, 5.01 4.34, 5.72 3.74 C6.42 3.15, 7.2 2.61, 8 2.14 C8.8 1.68, 9.66 1.28, 10.53 0.96 C11.4 0.65, 12.31 0.4, 13.22 0.24 C14.13 0.08, 15.07 0, 16 0 C16.93 0, 17.87 0.08, 18.78 0.24 C19.69 0.4, 20.6 0.65, 21.47 0.96 C22.34 1.28, 23.2 1.68, 24 2.14 C24.8 2.61, 25.58 3.15, 26.28 3.74 C26.99 4.34, 27.66 5.01, 28.26 5.72 C28.85 6.42, 29.39 7.2, 29.86 8 C30.32 8.8, 30.72 9.66, 31.04 10.53 C31.35 11.4, 31.6 12.31, 31.76 13.22 C31.92 14.13, 31.96 15.54, 32 16 C32.04 16.46, 32.04 15.54, 32 16" stroke="none" stroke-width="0" fill="#202124"></path><path d="M32 16 C32 16.93, 31.92 17.87, 31.76 18.78 C31.6 19.69, 31.35 20.6, 31.04 21.47 C30.72 22.34, 30.32 23.2, 29.86 24 C29.39 24.8, 28.85 25.58, 28.26 26.28 C27.66 26.99, 26.99 27.66, 26.28 28.26 C25.58 28.85, 24.8 29.39, 24 29.86 C23.2 30.32, 22.34 30.72, 21.47 31.04 C20.6 31.35, 19.69 31.6, 18.78 31.76 C17.87 31.92, 16.93 32, 16 32 C15.07 32, 14.13 31.92, 13.22 31.76 C12.31 31.6, 11.4 31.35, 10.53 31.04 C9.66 30.72, 8.8 30.32, 8 29.86 C7.2 29.39, 6.42 28.85, 5.72 28.26 C5.01 27.66, 4.34 26.99, 3.74 26.28 C3.15 25.58, 2.61 24.8, 2.14 24 C1.68 23.2, 1.28 22.34, 0.96 21.47 C0.65 20.6, 0.4 19.69, 0.24 18.78 C0.08 17.87, 0 16.93, 0 16 C0 15.07, 0.08 14.13, 0.24 13.22 C0.4 12.31, 0.65 11.4, 0.96 10.53 C1.28 9.66, 1.68 8.8, 2.14 8 C2.61 7.2, 3.15 6.42, 3.74 5.72 C4.34 5.01, 5.01 4.34, 5.72 3.74 C6.42 3.15, 7.2 2.61, 8 2.14 C8.8 1.68, 9.66 1.28, 10.53 0.96 C11.4 0.65, 12.31 0.4, 13.22 0.24 C14.13 0.08, 15.07 0, 16 0 C16.93 0, 17.87 0.08, 18.78 0.24 C19.69 0.4, 20.6 0.65, 21.47 0.96 C22.34 1.28, 23.2 1.68, 24 2.14 C24.8 2.61, 25.58 3.15, 26.28 3.74 C26.99 4.34, 27.66 5.01, 28.26 5.72 C28.85 6.42, 29.39 7.2, 29.86 8 C30.32 8.8, 30.72 9.66, 31.04 10.53 C31.35 11.4, 31.6 12.31, 31.76 13.22 C31.92 14.13, 31.96 15.54, 32 16 C32.04 16.46, 32.04 15.54, 32 16" stroke="#202124" stroke-width="2" fill="none"></path></g><g transform="translate(380.5 358) rotate(0 4.5 8)"><text x="4.5" y="13" font-family="Helvetica, Segoe UI Emoji" font-size="14px" fill="#FFFFFF" text-anchor="middle" style="white-space: pre;" direction="ltr">2</text></g><g stroke-linecap="round" transform="translate(330 490) rotate(0 16 16)"><path d="M32 16 C32 16.93, 31.92 17.87, 31.76 18.78 C31.6 19.69, 31.35 20.6, 31.04 21.47 C30.72 22.34, 30.32 23.2, 29.86 24 C29.39 24.8, 28.85 25.58, 28.26 26.28 C27.66 26.99, 26.99 27.66, 26.28 28.26 C25.58 28.85, 24.8 29.39, 24 29.86 C23.2 30.32, 22.34 30.72, 21.47 31.04 C20.6 31.35, 19.69 31.6, 18.78 31.76 C17.87 31.92, 16.93 32, 16 32 C15.07 32, 14.13 31.92, 13.22 31.76 C12.31 31.6, 11.4 31.35, 10.53 31.04 C9.66 30.72, 8.8 30.32, 8 29.86 C7.2 29.39, 6.42 28.85, 5.72 28.26 C5.01 27.66, 4.34 26.99, 3.74 26.28 C3.15 25.58, 2.61 24.8, 2.14 24 C1.68 23.2, 1.28 22.34, 0.96 21.47 C0.65 20.6, 0.4 19.69, 0.24 18.78 C0.08 17.87, 0 16.93, 0 16 C0 15.07, 0.08 14.13, 0.24 13.22 C0.4 12.31, 0.65 11.4, 0.96 10.53 C1.28 9.66, 1.68 8.8, 2.14 8 C2.61 7.2, 3.15 6.42, 3.74 5.72 C4.34 5.01, 5.01 4.34, 5.72 3.74 C6.42 3.15, 7.2 2.61, 8 2.14 C8.8 1.68, 9.66 1.28, 10.53 0.96 C11.4 0.65, 12.31 0.4, 13.22 0.24 C14.13 0.08, 15.07 0, 16 0 C16.93 0, 17.87 0.08, 18.78 0.24 C19.69 0.4, 20.6 0.65, 21.47 0.96 C22.34 1.28, 23.2 1.68, 24 2.14 C24.8 2.61, 25.58 3.15, 26.28 3.74 C26.99 4.34, 27.66 5.01, 28.26 5.72 C28.85 6.42, 29.39 7.2, 29.86 8 C30.32 8.8, 30.72 9.66, 31.04 10.53 C31.35 11.4, 31.6 12.31, 31.76 13.22 C31.92 14.13, 31.96 15.54, 32 16 C32.04 16.46, 32.04 15.54, 32 16" stroke="none" stroke-width="0" fill="#202124"></path><path d="M32 16 C32 16.93, 31.92 17.87, 31.76 18.78 C31.6 19.69, 31.35 20.6, 31.04 21.47 C30.72 22.34, 30.32 23.2, 29.86 24 C29.39 24.8, 28.85 25.58, 28.26 26.28 C27.66 26.99, 26.99 27.66, 26.28 28.26 C25.58 28.85, 24.8 29.39, 24 29.86 C23.2 30.32, 22.34 30.72, 21.47 31.04 C20.6 31.35, 19.69 31.6, 18.78 31.76 C17.87 31.92, 16.93 32, 16 32 C15.07 32, 14.13 31.92, 13.22 31.76 C12.31 31.6, 11.4 31.35, 10.53 31.04 C9.66 30.72, 8.8 30.32, 8 29.86 C7.2 29.39, 6.42 28.85, 5.72 28.26 C5.01 27.66, 4.34 26.99, 3.74 26.28 C3.15 25.58, 2.61 24.8, 2.14 24 C1.68 23.2, 1.28 22.34, 0.96 21.47 C0.65 20.6, 0.4 19.69, 0.24 18.78 C0.08 17.87, 0 16.93, 0 16 C0 15.07, 0.08 14.13, 0.24 13.22 C0.4 12.31, 0.65 11.4, 0.96 10.53 C1.28 9.66, 1.68 8.8, 2.14 8 C2.61 7.2, 3.15 6.42, 3.74 5.72 C4.34 5.01, 5.01 4.34, 5.72 3.74 C6.42 3.15, 7.2 2.61, 8 2.14 C8.8 1.68, 9.66 1.28, 10.53 0.96 C11.4 0.65, 12.31 0.4, 13.22 0.24 C14.13 0.08, 15.07 0, 16 0 C16.93 0, 17.87 0.08, 18.78 0.24 C19.69 0.4, 20.6 0.65, 21.47 0.96 C22.34 1.28, 23.2 1.68, 24 2.14 C24.8 2.61, 25.58 3.15, 26.28 3.74 C26.99 4.34, 27.66 5.01, 28.26 5.72 C28.85 6.42, 29.39 7.2, 29.86 8 C30.32 8.8, 30.72 9.66, 31.04 10.53 C31.35 11.4, 31.6 12.31, 31.76 13.22 C31.92 14.13, 31.96 15.54, 32 16 C32.04 16.46, 32.04 15.54, 32 16" stroke="#202124" stroke-width="2" fill="none"></path></g><g transform="translate(340.5 498) rotate(0 4.5 8)"><text x="4.5" y="13" font-family="Helvetica, Segoe UI Emoji" font-size="14px" fill="#FFFFFF" text-anchor="middle" style="white-space: pre;" direction="ltr">4</text></g><g stroke-linecap="round" transform="translate(690 350) rotate(0 16 16)"><path d="M32 16 C32 16.93, 31.92 17.87, 31.76 18.78 C31.6 19.69, 31.35 20.6, 31.04 21.47 C30.72 22.34, 30.32 23.2, 29.86 24 C29.39 24.8, 28.85 25.58, 28.26 26.28 C27.66 26.99, 26.99 27.66, 26.28 28.26 C25.58 28.85, 24.8 29.39, 24 29.86 C23.2 30.32, 22.34 30.72, 21.47 31.04 C20.6 31.35, 19.69 31.6, 18.78 31.76 C17.87 31.92, 16.93 32, 16 32 C15.07 32, 14.13 31.92, 13.22 31.76 C12.31 31.6, 11.4 31.35, 10.53 31.04 C9.66 30.72, 8.8 30.32, 8 29.86 C7.2 29.39, 6.42 28.85, 5.72 28.26 C5.01 27.66, 4.34 26.99, 3.74 26.28 C3.15 25.58, 2.61 24.8, 2.14 24 C1.68 23.2, 1.28 22.34, 0.96 21.47 C0.65 20.6, 0.4 19.69, 0.24 18.78 C0.08 17.87, 0 16.93, 0 16 C0 15.07, 0.08 14.13, 0.24 13.22 C0.4 12.31, 0.65 11.4, 0.96 10.53 C1.28 9.66, 1.68 8.8, 2.14 8 C2.61 7.2, 3.15 6.42, 3.74 5.72 C4.34 5.01, 5.01 4.34, 5.72 3.74 C6.42 3.15, 7.2 2.61, 8 2.14 C8.8 1.68, 9.66 1.28, 10.53 0.96 C11.4 0.65, 12.31 0.4, 13.22 0.24 C14.13 0.08, 15.07 0, 16 0 C16.93 0, 17.87 0.08, 18.78 0.24 C19.69 0.4, 20.6 0.65, 21.47 0.96 C22.34 1.28, 23.2 1.68, 24 2.14 C24.8 2.61, 25.58 3.15, 26.28 3.74 C26.99 4.34, 27.66 5.01, 28.26 5.72 C28.85 6.42, 29.39 7.2, 29.86 8 C30.32 8.8, 30.72 9.66, 31.04 10.53 C31.35 11.4, 31.6 12.31, 31.76 13.22 C31.92 14.13, 31.96 15.54, 32 16 C32.04 16.46, 32.04 15.54, 32 16" stroke="none" stroke-width="0" fill="#202124"></path><path d="M32 16 C32 16.93, 31.92 17.87, 31.76 18.78 C31.6 19.69, 31.35 20.6, 31.04 21.47 C30.72 22.34, 30.32 23.2, 29.86 24 C29.39 24.8, 28.85 25.58, 28.26 26.28 C27.66 26.99, 26.99 27.66, 26.28 28.26 C25.58 28.85, 24.8 29.39, 24 29.86 C23.2 30.32, 22.34 30.72, 21.47 31.04 C20.6 31.35, 19.69 31.6, 18.78 31.76 C17.87 31.92, 16.93 32, 16 32 C15.07 32, 14.13 31.92, 13.22 31.76 C12.31 31.6, 11.4 31.35, 10.53 31.04 C9.66 30.72, 8.8 30.32, 8 29.86 C7.2 29.39, 6.42 28.85, 5.72 28.26 C5.01 27.66, 4.34 26.99, 3.74 26.28 C3.15 25.58, 2.61 24.8, 2.14 24 C1.68 23.2, 1.28 22.34, 0.96 21.47 C0.65 20.6, 0.4 19.69, 0.24 18.78 C0.08 17.87, 0 16.93, 0 16 C0 15.07, 0.08 14.13, 0.24 13.22 C0.4 12.31, 0.65 11.4, 0.96 10.53 C1.28 9.66, 1.68 8.8, 2.14 8 C2.61 7.2, 3.15 6.42, 3.74 5.72 C4.34 5.01, 5.01 4.34, 5.72 3.74 C6.42 3.15, 7.2 2.61, 8 2.14 C8.8 1.68, 9.66 1.28, 10.53 0.96 C11.4 0.65, 12.31 0.4, 13.22 0.24 C14.13 0.08, 15.07 0, 16 0 C16.93 0, 17.87 0.08, 18.78 0.24 C19.69 0.4, 20.6 0.65, 21.47 0.96 C22.34 1.28, 23.2 1.68, 24 2.14 C24.8 2.61, 25.58 3.15, 26.28 3.74 C26.99 4.34, 27.66 5.01, 28.26 5.72 C28.85 6.42, 29.39 7.2, 29.86 8 C30.32 8.8, 30.72 9.66, 31.04 10.53 C31.35 11.4, 31.6 12.31, 31.76 13.22 C31.92 14.13, 31.96 15.54, 32 16 C32.04 16.46, 32.04 15.54, 32 16" stroke="#202124" stroke-width="2" fill="none"></path></g><g transform="translate(700.5 358) rotate(0 4.5 8)"><text x="4.5" y="13" font-family="Helvetica, Segoe UI Emoji" font-size="14px" fill="#FFFFFF" text-anchor="middle" style="white-space: pre;" direction="ltr">3</text></g><g stroke-linecap="round" transform="translate(750 490) rotate(0 16 16)"><path d="M32 16 C32 16.93, 31.92 17.87, 31.76 18.78 C31.6 19.69, 31.35 20.6, 31.04 21.47 C30.72 22.34, 30.32 23.2, 29.86 24 C29.39 24.8, 28.85 25.58, 28.26 26.28 C27.66 26.99, 26.99 27.66, 26.28 28.26 C25.58 28.85, 24.8 29.39, 24 29.86 C23.2 30.32, 22.34 30.72, 21.47 31.04 C20.6 31.35, 19.69 31.6, 18.78 31.76 C17.87 31.92, 16.93 32, 16 32 C15.07 32, 14.13 31.92, 13.22 31.76 C12.31 31.6, 11.4 31.35, 10.53 31.04 C9.66 30.72, 8.8 30.32, 8 29.86 C7.2 29.39, 6.42 28.85, 5.72 28.26 C5.01 27.66, 4.34 26.99, 3.74 26.28 C3.15 25.58, 2.61 24.8, 2.14 24 C1.68 23.2, 1.28 22.34, 0.96 21.47 C0.65 20.6, 0.4 19.69, 0.24 18.78 C0.08 17.87, 0 16.93, 0 16 C0 15.07, 0.08 14.13, 0.24 13.22 C0.4 12.31, 0.65 11.4, 0.96 10.53 C1.28 9.66, 1.68 8.8, 2.14 8 C2.61 7.2, 3.15 6.42, 3.74 5.72 C4.34 5.01, 5.01 4.34, 5.72 3.74 C6.42 3.15, 7.2 2.61, 8 2.14 C8.8 1.68, 9.66 1.28, 10.53 0.96 C11.4 0.65, 12.31 0.4, 13.22 0.24 C14.13 0.08, 15.07 0, 16 0 C16.93 0, 17.87 0.08, 18.78 0.24 C19.69 0.4, 20.6 0.65, 21.47 0.96 C22.34 1.28, 23.2 1.68, 24 2.14 C24.8 2.61, 25.58 3.15, 26.28 3.74 C26.99 4.34, 27.66 5.01, 28.26 5.72 C28.85 6.42, 29.39 7.2, 29.86 8 C30.32 8.8, 30.72 9.66, 31.04 10.53 C31.35 11.4, 31.6 12.31, 31.76 13.22 C31.92 14.13, 31.96 15.54, 32 16 C32.04 16.46, 32.04 15.54, 32 16" stroke="none" stroke-width="0" fill="#202124"></path><path d="M32 16 C32 16.93, 31.92 17.87, 31.76 18.78 C31.6 19.69, 31.35 20.6, 31.04 21.47 C30.72 22.34, 30.32 23.2, 29.86 24 C29.39 24.8, 28.85 25.58, 28.26 26.28 C27.66 26.99, 26.99 27.66, 26.28 28.26 C25.58 28.85, 24.8 29.39, 24 29.86 C23.2 30.32, 22.34 30.72, 21.47 31.04 C20.6 31.35, 19.69 31.6, 18.78 31.76 C17.87 31.92, 16.93 32, 16 32 C15.07 32, 14.13 31.92, 13.22 31.76 C12.31 31.6, 11.4 31.35, 10.53 31.04 C9.66 30.72, 8.8 30.32, 8 29.86 C7.2 29.39, 6.42 28.85, 5.72 28.26 C5.01 27.66, 4.34 26.99, 3.74 26.28 C3.15 25.58, 2.61 24.8, 2.14 24 C1.68 23.2, 1.28 22.34, 0.96 21.47 C0.65 20.6, 0.4 19.69, 0.24 18.78 C0.08 17.87, 0 16.93, 0 16 C0 15.07, 0.08 14.13, 0.24 13.22 C0.4 12.31, 0.65 11.4, 0.96 10.53 C1.28 9.66, 1.68 8.8, 2.14 8 C2.61 7.2, 3.15 6.42, 3.74 5.72 C4.34 5.01, 5.01 4.34, 5.72 3.74 C6.42 3.15, 7.2 2.61, 8 2.14 C8.8 1.68, 9.66 1.28, 10.53 0.96 C11.4 0.65, 12.31 0.4, 13.22 0.24 C14.13 0.08, 15.07 0, 16 0 C16.93 0, 17.87 0.08, 18.78 0.24 C19.69 0.4, 20.6 0.65, 21.47 0.96 C22.34 1.28, 23.2 1.68, 24 2.14 C24.8 2.61, 25.58 3.15, 26.28 3.74 C26.99 4.34, 27.66 5.01, 28.26 5.72 C28.85 6.42, 29.39 7.2, 29.86 8 C30.32 8.8, 30.72 9.66, 31.04 10.53 C31.35 11.4, 31.6 12.31, 31.76 13.22 C31.92 14.13, 31.96 15.54, 32 16 C32.04 16.46, 32.04 15.54, 32 16" stroke="#202124" stroke-width="2" fill="none"></path></g><g transform="translate(760.5 498) rotate(0 4.5 8)"><text x="4.5" y="13" font-family="Helvetica, Segoe UI Emoji" font-size="14px" fill="#FFFFFF" text-anchor="middle" style="white-space: pre;" direction="ltr">5</text></g><g stroke-linecap="round" transform="translate(390 90) rotate(0 44 41)"><path d="M8.2 0 L79.8 0 L83.39 0.51 L85.95 2.05 L87.49 4.61 L88 8.2 L88 73.8 L87.49 77.39 L85.95 79.95 L83.39 81.49 L79.8 82 L8.2 82 L4.61 81.49 L2.05 79.95 L0.51 77.39 L0 73.8 L0 8.2 L0.51 4.61 L2.05 2.05 L4.61 0.51 L8.2 0" stroke="none" stroke-width="0" fill="#FFF"></path><path d="M8.2 0 M8.2 0 C26.34 0, 44.48 0, 79.8 0 M8.2 0 C35.87 0, 63.53 0, 79.8 0 M79.8 0 C85.27 0, 88 2.73, 88 8.2 M79.8 0 C85.27 0, 88 2.73, 88 8.2 M88 8.2 C88 25.02, 88 41.85, 88 73.8 M88 8.2 C88 22.85, 88 37.51, 88 73.8 M88 73.8 C88 79.27, 85.27 82, 79.8 82 M88 73.8 C88 79.27, 85.27 82, 79.8 82 M79.8 82 C59.01 82, 38.22 82, 8.2 82 M79.8 82 C59.33 82, 38.86 82, 8.2 82 M8.2 82 C2.73 82, 0 79.27, 0 73.8 M8.2 82 C2.73 82, 0 79.27, 0 73.8 M0 73.8 C0 56.37, 0 38.94, 0 8.2 M0 73.8 C0 50.01, 0 26.22, 0 8.2 M0 8.2 C0 2.73, 2.73 0, 8.2 0 M0 8.2 C0 2.73, 2.73 0, 8.2 0" stroke="#202124" stroke-width="1" fill="none"></path></g><g transform="translate(406 138) rotate(0 28 9)"><text x="28" y="16" font-family="Helvetica, Segoe UI Emoji" font-size="16px" fill="#202124" text-anchor="middle" style="white-space: pre;" direction="ltr">Computer</text></g><g stroke-linecap="round"><g transform="translate(422 106) rotate(0 12 12)" fill-rule="evenodd"><path d="M0 0 L24 0 L24 24 L0 24 L0 0" stroke="none" stroke-width="0" fill="#00000000" fill-rule="evenodd"></path><path d="M0 0 C7.26 0, 14.52 0, 24 0 M0 0 C8.45 0, 16.9 0, 24 0 M24 0 C24 6.4, 24 12.79, 24 24 M24 0 C24 8.61, 24 17.23, 24 24 M24 24 C15.6 24, 7.19 24, 0 24 M24 24 C15.07 24, 6.14 24, 0 24 M0 24 C0 15.44, 0 6.87, 0 0 M0 24 C0 17.27, 0 10.54, 0 0 M0 0 C0 0, 0 0, 0 0 M0 0 C0 0, 0 0, 0 0" stroke="#00000000" stroke-width="1" fill="none"></path></g></g><g stroke-linecap="round"><g transform="translate(442 124) rotate(0 -8 -6)" fill-rule="evenodd"><path d="M0 0 L0 0 L0.77 -0.16 L1.41 -0.59 L1.83 -1.22 L1.99 -2 L2 -12 L2 -12 L1.84 -12.78 L1.41 -13.41 L0.78 -13.84 L0 -14 L-16 -14 L-16 -14 L-16.78 -13.84 L-17.41 -13.41 L-17.84 -12.78 L-18 -12 L-18 -2 L-18 -2 L-17.84 -1.22 L-17.41 -0.59 L-16.78 -0.16 L-16 0 L-20 0 L-20 2 L4 2 L4 0 L0 0 L0 0" stroke="none" stroke-width="0" fill="#000" fill-rule="evenodd"></path><path d="M0 0 C0 0, 0 0, 0 0 M0 0 C0 0, 0 0, 0 0 M0 0 C0.16 -0.03, 0.32 -0.07, 0.77 -0.16 M0 0 C0.25 -0.05, 0.51 -0.1, 0.77 -0.16 M0.77 -0.16 C0.94 -0.27, 1.1 -0.38, 1.41 -0.59 M0.77 -0.16 C0.93 -0.26, 1.08 -0.36, 1.41 -0.59 M1.41 -0.59 C1.57 -0.83, 1.73 -1.06, 1.83 -1.22 M1.41 -0.59 C1.56 -0.81, 1.71 -1.04, 1.83 -1.22 M1.83 -1.22 C1.88 -1.46, 1.93 -1.69, 1.99 -2 M1.83 -1.22 C1.88 -1.48, 1.94 -1.73, 1.99 -2 M1.99 -2 C1.99 -5.53, 2 -9.06, 2 -12 M1.99 -2 C1.99 -4.53, 2 -7.07, 2 -12 M2 -12 C2 -12, 2 -12, 2 -12 M2 -12 C2 -12, 2 -12, 2 -12 M2 -12 C1.94 -12.28, 1.89 -12.55, 1.84 -12.78 M2 -12 C1.96 -12.21, 1.91 -12.43, 1.84 -12.78 M1.84 -12.78 C1.69 -13.01, 1.53 -13.24, 1.41 -13.41 M1.84 -12.78 C1.75 -12.91, 1.66 -13.05, 1.41 -13.41 M1.41 -13.41 C1.22 -13.54, 1.03 -13.67, 0.78 -13.84 M1.41 -13.41 C1.16 -13.58, 0.91 -13.75, 0.78 -13.84 M0.78 -13.84 C0.48 -13.9, 0.17 -13.96, 0 -14 M0.78 -13.84 C0.48 -13.9, 0.18 -13.96, 0 -14 M0 -14 C-4.9 -14, -9.81 -14, -16 -14 M0 -14 C-3.31 -14, -6.63 -14, -16 -14 M-16 -14 C-16 -14, -16 -14, -16 -14 M-16 -14 C-16 -14, -16 -14, -16 -14 M-16 -14 C-16.31 -13.94, -16.62 -13.87, -16.78 -13.84 M-16 -14 C-16.17 -13.96, -16.35 -13.93, -16.78 -13.84 M-16.78 -13.84 C-17 -13.69, -17.23 -13.54, -17.41 -13.41 M-16.78 -13.84 C-16.91 -13.76, -17.03 -13.67, -17.41 -13.41 M-17.41 -13.41 C-17.5 -13.28, -17.59 -13.15, -17.84 -12.78 M-17.41 -13.41 C-17.58 -13.17, -17.74 -12.93, -17.84 -12.78 M-17.84 -12.78 C-17.89 -12.52, -17.95 -12.26, -18 -12 M-17.84 -12.78 C-17.9 -12.51, -17.95 -12.25, -18 -12 M-18 -12 C-18 -9.35, -18 -6.7, -18 -2 M-18 -12 C-18 -8.64, -18 -5.29, -18 -2 M-18 -2 C-18 -2, -18 -2, -18 -2 M-18 -2 C-18 -2, -18 -2, -18 -2 M-18 -2 C-17.95 -1.76, -17.9 -1.51, -17.84 -1.22 M-18 -2 C-17.94 -1.72, -17.89 -1.44, -17.84 -1.22 M-17.84 -1.22 C-17.71 -1.02, -17.57 -0.82, -17.41 -0.59 M-17.84 -1.22 C-17.7 -1.01, -17.55 -0.8, -17.41 -0.59 M-17.41 -0.59 C-17.16 -0.42, -16.91 -0.25, -16.78 -0.16 M-17.41 -0.59 C-17.25 -0.48, -17.1 -0.37, -16.78 -0.16 M-16.78 -0.16 C-16.47 -0.1, -16.17 -0.04, -16 0 M-16.78 -0.16 C-16.61 -0.12, -16.45 -0.09, -16 0 M-16 0 C-17.45 0, -18.89 0, -20 0 M-16 0 C-16.89 0, -17.77 0, -20 0 M-20 0 C-20 0.42, -20 0.85, -20 2 M-20 0 C-20 0.52, -20 1.04, -20 2 M-20 2 C-11.3 2, -2.61 2, 4 2 M-20 2 C-14.93 2, -9.86 2, 4 2 M4 2 C4 1.29, 4 0.57, 4 0 M4 2 C4 1.35, 4 0.7, 4 0 M4 0 C2.57 0, 1.14 0, 0 0 M4 0 C2.5 0, 0.99 0, 0 0 M0 0 C0 0, 0 0, 0 0 M0 0 C0 0, 0 0, 0 0 M0 0 C0 0, 0 0, 0 0 M0 0 C0 0, 0 0, 0 0" stroke="#00000000" stroke-width="1" fill="none"></path></g></g><g stroke-linecap="round"><g transform="translate(426 112) rotate(0 8 5)" fill-rule="evenodd"><path d="M0 0 L16 0 L16 10 L0 10 L0 0" stroke="none" stroke-width="0" fill="#DEDEDE" fill-rule="evenodd"></path><path d="M0 0 C5.58 0, 11.17 0, 16 0 M0 0 C6.31 0, 12.62 0, 16 0 M16 0 C16 2, 16 4, 16 10 M16 0 C16 2.32, 16 4.65, 16 10 M16 10 C10.03 10, 4.07 10, 0 10 M16 10 C11.89 10, 7.78 10, 0 10 M0 10 C0 7.17, 0 4.33, 0 0 M0 10 C0 6.99, 0 3.97, 0 0 M0 0 C0 0, 0 0, 0 0 M0 0 C0 0, 0 0, 0 0" stroke="#00000000" stroke-width="1" fill="none"></path></g></g><g stroke-linecap="round" transform="translate(550 90) rotate(0 51 41)"><path d="M8.2 0 L93.8 0 L97.39 0.51 L99.95 2.05 L101.49 4.61 L102 8.2 L102 73.8 L101.49 77.39 L99.95 79.95 L97.39 81.49 L93.8 82 L8.2 82 L4.61 81.49 L2.05 79.95 L0.51 77.39 L0 73.8 L0 8.2 L0.51 4.61 L2.05 2.05 L4.61 0.51 L8.2 0" stroke="none" stroke-width="0" fill="#FFF"></path><path d="M8.2 0 M8.2 0 C35.3 0, 62.4 0, 93.8 0 M8.2 0 C38.49 0, 68.77 0, 93.8 0 M93.8 0 C99.27 0, 102 2.73, 102 8.2 M93.8 0 C99.27 0, 102 2.73, 102 8.2 M102 8.2 C102 27.36, 102 46.52, 102 73.8 M102 8.2 C102 33.72, 102 59.24, 102 73.8 M102 73.8 C102 79.27, 99.27 82, 93.8 82 M102 73.8 C102 79.27, 99.27 82, 93.8 82 M93.8 82 C72.36 82, 50.92 82, 8.2 82 M93.8 82 C60.18 82, 26.56 82, 8.2 82 M8.2 82 C2.73 82, 0 79.27, 0 73.8 M8.2 82 C2.73 82, 0 79.27, 0 73.8 M0 73.8 C0 60.66, 0 47.52, 0 8.2 M0 73.8 C0 58.03, 0 42.27, 0 8.2 M0 8.2 C0 2.73, 2.73 0, 8.2 0 M0 8.2 C0 2.73, 2.73 0, 8.2 0" stroke="#202124" stroke-width="1" fill="none"></path></g><g transform="translate(566 138) rotate(0 35 9)"><text x="35" y="16" font-family="Helvetica, Segoe UI Emoji" font-size="16px" fill="#202124" text-anchor="middle" style="white-space: pre;" direction="ltr">Smartphone</text></g><g stroke-linecap="round"><g transform="translate(589 106) rotate(0 12 12)" fill-rule="evenodd"><path d="M0 0 L24 0 L24 24 L0 24 L0 0" stroke="none" stroke-width="0" fill="#00000000" fill-rule="evenodd"></path><path d="M0 0 C6.02 0, 12.04 0, 24 0 M0 0 C7.2 0, 14.39 0, 24 0 M24 0 C24 6.61, 24 13.22, 24 24 M24 0 C24 5.55, 24 11.11, 24 24 M24 24 C16.48 24, 8.96 24, 0 24 M24 24 C18.69 24, 13.37 24, 0 24 M0 24 C0 17.02, 0 10.04, 0 0 M0 24 C0 17.22, 0 10.44, 0 0 M0 0 C0 0, 0 0, 0 0 M0 0 C0 0, 0 0, 0 0" stroke="#00000000" stroke-width="1" fill="none"></path></g></g><g stroke-linecap="round"><g transform="translate(606 107.00999999046326) rotate(0 -5 10.990000009536743)" fill-rule="evenodd"><path d="M0 0 L-10 -0.01 L-10 -0.01 L-10.78 0.15 L-11.41 0.58 L-11.84 1.21 L-12 1.99 L-12 19.99 L-12 19.99 L-11.84 20.77 L-11.41 21.4 L-10.78 21.83 L-10 21.99 L0 21.99 L0 21.99 L0.78 21.83 L1.41 21.4 L1.84 20.77 L2 19.99 L2 1.99 L2 1.99 L1.84 1.21 L1.41 0.58 L0.78 0.16 L0 0 L0 0" stroke="none" stroke-width="0" fill="#000" fill-rule="evenodd"></path><path d="M0 0 C-2.8 0, -5.61 -0.01, -10 -0.01 M0 0 C-3.32 0, -6.63 -0.01, -10 -0.01 M-10 -0.01 C-10 -0.01, -10 -0.01, -10 -0.01 M-10 -0.01 C-10 -0.01, -10 -0.01, -10 -0.01 M-10 -0.01 C-10.2 0.03, -10.39 0.07, -10.78 0.15 M-10 -0.01 C-10.31 0.05, -10.61 0.11, -10.78 0.15 M-10.78 0.15 C-10.97 0.28, -11.16 0.41, -11.41 0.58 M-10.78 0.15 C-10.94 0.26, -11.11 0.37, -11.41 0.58 M-11.41 0.58 C-11.55 0.78, -11.68 0.97, -11.84 1.21 M-11.41 0.58 C-11.52 0.74, -11.63 0.91, -11.84 1.21 M-11.84 1.21 C-11.88 1.41, -11.92 1.61, -12 1.99 M-11.84 1.21 C-11.9 1.48, -11.95 1.74, -12 1.99 M-12 1.99 C-12 6.38, -12 10.77, -12 19.99 M-12 1.99 C-12 7.58, -12 13.17, -12 19.99 M-12 19.99 C-12 19.99, -12 19.99, -12 19.99 M-12 19.99 C-12 19.99, -12 19.99, -12 19.99 M-12 19.99 C-11.95 20.22, -11.91 20.45, -11.84 20.77 M-12 19.99 C-11.95 20.23, -11.9 20.47, -11.84 20.77 M-11.84 20.77 C-11.68 21.01, -11.51 21.25, -11.41 21.4 M-11.84 20.77 C-11.7 20.98, -11.55 21.2, -11.41 21.4 M-11.41 21.4 C-11.25 21.51, -11.09 21.62, -10.78 21.83 M-11.41 21.4 C-11.23 21.53, -11.05 21.65, -10.78 21.83 M-10.78 21.83 C-10.53 21.88, -10.28 21.93, -10 21.99 M-10.78 21.83 C-10.5 21.89, -10.23 21.94, -10 21.99 M-10 21.99 C-6.12 21.99, -2.24 21.99, 0 21.99 M-10 21.99 C-7.63 21.99, -5.25 21.99, 0 21.99 M0 21.99 C0 21.99, 0 21.99, 0 21.99 M0 21.99 C0 21.99, 0 21.99, 0 21.99 M0 21.99 C0.23 21.94, 0.46 21.9, 0.78 21.83 M0 21.99 C0.18 21.95, 0.36 21.92, 0.78 21.83 M0.78 21.83 C1.02 21.67, 1.25 21.51, 1.41 21.4 M0.78 21.83 C0.91 21.74, 1.04 21.65, 1.41 21.4 M1.41 21.4 C1.51 21.25, 1.61 21.1, 1.84 20.77 M1.41 21.4 C1.55 21.2, 1.69 21, 1.84 20.77 M1.84 20.77 C1.9 20.47, 1.96 20.17, 2 19.99 M1.84 20.77 C1.9 20.49, 1.95 20.22, 2 19.99 M2 19.99 C2 15.84, 2 11.69, 2 1.99 M2 19.99 C2 12.85, 2 5.71, 2 1.99 M2 1.99 C2 1.99, 2 1.99, 2 1.99 M2 1.99 C2 1.99, 2 1.99, 2 1.99 M2 1.99 C1.94 1.72, 1.89 1.45, 1.84 1.21 M2 1.99 C1.94 1.72, 1.89 1.44, 1.84 1.21 M1.84 1.21 C1.73 1.05, 1.62 0.89, 1.41 0.58 M1.84 1.21 C1.76 1.09, 1.67 0.96, 1.41 0.58 M1.41 0.58 C1.27 0.49, 1.13 0.4, 0.78 0.16 M1.41 0.58 C1.2 0.44, 0.98 0.3, 0.78 0.16 M0.78 0.16 C0.51 0.1, 0.24 0.05, 0 0 M0.78 0.16 C0.6 0.12, 0.42 0.08, 0 0 M0 0 C0 0, 0 0, 0 0 M0 0 C0 0, 0 0, 0 0 M0 0 C0 0, 0 0, 0 0 M0 0 C0 0, 0 0, 0 0" stroke="#00000000" stroke-width="1" fill="none"></path></g></g><g stroke-linecap="round"><g transform="translate(606 125) rotate(0 -5 -7)" fill-rule="evenodd"><path d="M0 0 L-10 0 L-10 -14 L0 -14 L0 0" stroke="none" stroke-width="0" fill="#DEDEDE" fill-rule="evenodd"></path><path d="M0 0 C-3.55 0, -7.1 0, -10 0 M0 0 C-2.99 0, -5.98 0, -10 0 M-10 0 C-10 -4.55, -10 -9.1, -10 -14 M-10 0 C-10 -4.94, -10 -9.88, -10 -14 M-10 -14 C-7.47 -14, -4.93 -14, 0 -14 M-10 -14 C-7.57 -14, -5.15 -14, 0 -14 M0 -14 C0 -9.12, 0 -4.25, 0 0 M0 -14 C0 -9.01, 0 -4.02, 0 0 M0 0 C0 0, 0 0, 0 0 M0 0 C0 0, 0 0, 0 0" stroke="#00000000" stroke-width="1" fill="none"></path></g></g><g stroke-linecap="round" transform="translate(430 350) rotate(0 120 40)"><path d="M8 0 L235.5 0.5 L238 2 L239.5 4.5 L240 8 L239.5 75.5 L238 78 L235.5 79.5 L232 80 L4.5 79.5 L2 78 L0.5 75.5 L0 72 L0 8 L0.5 4.5 L2 2 L4.5 0.5 L8 0" stroke="none" stroke-width="0" fill="#FFF"></path><path d="M8 0 M8 0 C69.51 0, 131.02 0, 232 0 M8 0 C85.53 0, 163.05 0, 232 0 M232 0 C237.33 0, 240 2.67, 240 8 M232 0 C237.33 0, 240 2.67, 240 8 M240 8 C240 24.47, 240 40.94, 240 72 M240 8 C240 22.12, 240 36.23, 240 72 M240 72 C240 77.33, 237.33 80, 232 80 M240 72 C240 77.33, 237.33 80, 232 80 M232 80 C145.95 80, 59.9 80, 8 80 M232 80 C182.27 80, 132.55 80, 8 80 M8 80 C2.67 80, 0 77.33, 0 72 M8 80 C2.67 80, 0 77.33, 0 72 M0 72 C0 53.73, 0 35.46, 0 8 M0 72 C0 56.16, 0 40.31, 0 8 M0 8 C0 2.67, 2.67 0, 8 0 M0 8 C0 2.67, 2.67 0, 8 0" stroke="#202124" stroke-width="1" fill="none"></path></g><g transform="translate(446 366) rotate(0 38.5 9.5)"><text x="0" y="15" font-family="Helvetica, Segoe UI Emoji" font-size="16px" fill="#1A73E8" text-anchor="start" style="white-space: pre;" direction="ltr">Cloud Run</text></g><g transform="translate(446 388) rotate(0 64.5 9.5)"><text x="0" y="15" font-family="Helvetica, Segoe UI Emoji" font-size="16px" fill="#202124" text-anchor="start" style="white-space: pre;" direction="ltr">Django API (DRF)</text></g><g stroke-linecap="round"><g transform="translate(638.9066667556763 368.6266667842865) rotate(0 6.233334064483643 4.6866666078567505)" fill-rule="evenodd"><path d="M0 0 L3.11 9.37 L12.47 9.37 L0 0 L0 0" stroke="none" stroke-width="0" fill="#aecbfa" fill-rule="evenodd"></path><path d="M0 0 C0.86 2.6, 1.72 5.19, 3.11 9.37 M0 0 C0.66 1.98, 1.31 3.95, 3.11 9.37 M3.11 9.37 C5.84 9.37, 8.57 9.37, 12.47 9.37 M3.11 9.37 C6.25 9.37, 9.39 9.37, 12.47 9.37 M12.47 9.37 C9.61 7.22, 6.75 5.07, 0 0 M12.47 9.37 C8.06 6.06, 3.64 2.74, 0 0 M0 0 C0 0, 0 0, 0 0 M0 0 C0 0, 0 0, 0 0 M0 0 C0 0, 0 0, 0 0 M0 0 C0 0, 0 0, 0 0" stroke="transparent" stroke-width="1" fill="none"></path></g></g><g stroke-linecap="round"><g transform="translate(651.3733348846436 378) rotate(0 -6.233334064483643 4.686667442321777)" fill-rule="evenodd"><path d="M0 0 L-9.35 0 L-12.47 9.37 L0 0 L0 0" stroke="none" stroke-width="0" fill="#4285f4" fill-rule="evenodd"></path><path d="M0 0 C-2.29 0, -4.57 0, -9.35 0 M0 0 C-3.33 0, -6.66 0, -9.35 0 M-9.35 0 C-10.02 2, -10.68 3.99, -12.47 9.37 M-9.35 0 C-10.33 2.95, -11.31 5.9, -12.47 9.37 M-12.47 9.37 C-9.49 7.14, -6.52 4.9, 0 0 M-12.47 9.37 C-7.74 5.82, -3 2.26, 0 0 M0 0 C0 0, 0 0, 0 0 M0 0 C0 0, 0 0, 0 0 M0 0 C0 0, 0 0, 0 0 M0 0 C0 0, 0 0, 0 0" stroke="transparent" stroke-width="1" fill="none"></path></g></g><g stroke-linecap="round"><g transform="translate(633.4400000572205 387.37333488464355) rotate(0 2.7333333492279053 -4.686667442321777)" fill-rule="evenodd"><path d="M0 0 L3.13 -1.56 L5.47 -9.37 L2.34 -9.37 L0 0 L0 0" stroke="none" stroke-width="0" fill="#4285f4" fill-rule="evenodd"></path><path d="M0 0 C1.08 -0.54, 2.15 -1.08, 3.13 -1.56 M0 0 C0.95 -0.48, 1.91 -0.95, 3.13 -1.56 M3.13 -1.56 C3.93 -4.24, 4.73 -6.91, 5.47 -9.37 M3.13 -1.56 C3.7 -3.47, 4.27 -5.37, 5.47 -9.37 M5.47 -9.37 C4.31 -9.37, 3.15 -9.37, 2.34 -9.37 M5.47 -9.37 C4.42 -9.37, 3.37 -9.37, 2.34 -9.37 M2.34 -9.37 C1.73 -6.92, 1.12 -4.47, 0 0 M2.34 -9.37 C1.62 -6.5, 0.91 -3.63, 0 0 M0 0 C0 0, 0 0, 0 0 M0 0 C0 0, 0 0, 0 0 M0 0 C0 0, 0 0, 0 0 M0 0 C0 0, 0 0, 0 0" stroke="transparent" stroke-width="1" fill="none"></path></g></g><g stroke-linecap="round"><g transform="translate(633.4400000572205 368.6266667842865) rotate(0 2.7333333492279053 4.6866666078567505)" fill-rule="evenodd"><path d="M0 0 L2.34 9.37 L5.47 9.37 L3.13 1.56 L0 0 L0 0" stroke="none" stroke-width="0" fill="#aecbfa" fill-rule="evenodd"></path><path d="M0 0 C0.84 3.37, 1.68 6.73, 2.34 9.37 M0 0 C0.54 2.15, 1.07 4.3, 2.34 9.37 M2.34 9.37 C3.17 9.37, 3.99 9.37, 5.47 9.37 M2.34 9.37 C3.15 9.37, 3.96 9.37, 5.47 9.37 M5.47 9.37 C4.64 6.62, 3.82 3.88, 3.13 1.56 M5.47 9.37 C4.53 6.26, 3.6 3.15, 3.13 1.56 M3.13 1.56 C2.05 1.02, 0.98 0.49, 0 0 M3.13 1.56 C2.02 1.01, 0.91 0.45, 0 0 M0 0 C0 0, 0 0, 0 0 M0 0 C0 0, 0 0, 0 0 M0 0 C0 0, 0 0, 0 0 M0 0 C0 0, 0 0, 0 0" stroke="transparent" stroke-width="1" fill="none"></path></g></g><g stroke-linecap="round" transform="translate(750 350) rotate(0 120 40)"><path d="M8 0 L235.5 0.5 L238 2 L239.5 4.5 L240 8 L239.5 75.5 L238 78 L235.5 79.5 L232 80 L4.5 79.5 L2 78 L0.5 75.5 L0 72 L0 8 L0.5 4.5 L2 2 L4.5 0.5 L8 0" stroke="none" stroke-width="0" fill="#FFF"></path><path d="M8 0 M8 0 C71.54 0, 135.09 0, 232 0 M8 0 C96.02 0, 184.05 0, 232 0 M232 0 C237.33 0, 240 2.67, 240 8 M232 0 C237.33 0, 240 2.67, 240 8 M240 8 C240 20.8, 240 33.61, 240 72 M240 8 C240 29.38, 240 50.76, 240 72 M240 72 C240 77.33, 237.33 80, 232 80 M240 72 C240 77.33, 237.33 80, 232 80 M232 80 C157.4 80, 82.8 80, 8 80 M232 80 C166.24 80, 100.47 80, 8 80 M8 80 C2.67 80, 0 77.33, 0 72 M8 80 C2.67 80, 0 77.33, 0 72 M0 72 C0 54.56, 0 37.12, 0 8 M0 72 C0 55.4, 0 38.8, 0 8 M0 8 C0 2.67, 2.67 0, 8 0 M0 8 C0 2.67, 2.67 0, 8 0" stroke="#202124" stroke-width="1" fill="none"></path></g><g transform="translate(766 366) rotate(0 57.5 9.5)"><text x="0" y="15" font-family="Helvetica, Segoe UI Emoji" font-size="16px" fill="#1A73E8" text-anchor="start" style="white-space: pre;" direction="ltr">Secret Manager</text></g><g transform="translate(766 388) rotate(0 48 9.5)"><text x="0" y="15" font-family="Helvetica, Segoe UI Emoji" font-size="16px" fill="#202124" text-anchor="start" style="white-space: pre;" direction="ltr">Configuration</text></g><g stroke-linecap="round"><g transform="translate(973.6697235107422 370.9027523994446) rotate(0 -2.4183483123779297 6.92477011680603)" fill-rule="evenodd"><path d="M0 0 L0 13.85 L-4.62 13.85 L-4.62 13.85 L-4.66 13.85 L-4.7 13.83 L-4.74 13.81 L-4.77 13.78 L-4.8 13.75 L-4.82 13.71 L-4.83 13.67 L-4.84 13.63 L-4.84 12.31 L-4.84 12.31 L-4.83 12.27 L-4.82 12.23 L-4.8 12.19 L-4.77 12.16 L-4.74 12.13 L-4.7 12.11 L-4.66 12.1 L-4.62 12.09 L-1.76 12.09 L-1.76 1.76 L-4.62 1.76 L-4.62 1.76 L-4.66 1.75 L-4.7 1.74 L-4.74 1.72 L-4.77 1.69 L-4.8 1.66 L-4.82 1.62 L-4.83 1.58 L-4.84 1.54 L-4.84 0.22 L-4.84 0.22 L-4.83 0.18 L-4.82 0.13 L-4.8 0.1 L-4.77 0.06 L-4.74 0.04 L-4.7 0.02 L-4.66 0 L-4.62 0 L0 0 L0 0" stroke="none" stroke-width="0" fill="#4285f4" fill-rule="evenodd"></path><path d="M0 0 C0 5.45, 0 10.89, 0 13.85 M0 0 C0 3.96, 0 7.92, 0 13.85 M0 13.85 C-0.99 13.85, -1.98 13.85, -4.62 13.85 M0 13.85 C-1.08 13.85, -2.15 13.85, -4.62 13.85 M-4.62 13.85 C-4.62 13.85, -4.62 13.85, -4.62 13.85 M-4.62 13.85 C-4.62 13.85, -4.62 13.85, -4.62 13.85 M-4.62 13.85 C-4.63 13.85, -4.63 13.85, -4.66 13.85 M-4.62 13.85 C-4.63 13.85, -4.64 13.85, -4.66 13.85 M-4.66 13.85 C-4.67 13.84, -4.69 13.84, -4.7 13.83 M-4.66 13.85 C-4.68 13.84, -4.69 13.84, -4.7 13.83 M-4.7 13.83 C-4.72 13.82, -4.73 13.82, -4.74 13.81 M-4.7 13.83 C-4.72 13.82, -4.73 13.82, -4.74 13.81 M-4.74 13.81 C-4.75 13.81, -4.76 13.8, -4.77 13.78 M-4.74 13.81 C-4.75 13.81, -4.76 13.8, -4.77 13.78 M-4.77 13.78 C-4.78 13.78, -4.79 13.77, -4.8 13.75 M-4.77 13.78 C-4.78 13.77, -4.79 13.76, -4.8 13.75 M-4.8 13.75 C-4.8 13.74, -4.81 13.73, -4.82 13.71 M-4.8 13.75 C-4.8 13.74, -4.81 13.74, -4.82 13.71 M-4.82 13.71 C-4.82 13.7, -4.83 13.69, -4.83 13.67 M-4.82 13.71 C-4.82 13.7, -4.83 13.68, -4.83 13.67 M-4.83 13.67 C-4.83 13.66, -4.83 13.65, -4.84 13.63 M-4.83 13.67 C-4.83 13.66, -4.83 13.65, -4.84 13.63 M-4.84 13.63 C-4.84 13.21, -4.84 12.8, -4.84 12.31 M-4.84 13.63 C-4.84 13.17, -4.84 12.71, -4.84 12.31 M-4.84 12.31 C-4.84 12.31, -4.84 12.31, -4.84 12.31 M-4.84 12.31 C-4.84 12.31, -4.84 12.31, -4.84 12.31 M-4.84 12.31 C-4.84 12.3, -4.83 12.28, -4.83 12.27 M-4.84 12.31 C-4.84 12.3, -4.83 12.29, -4.83 12.27 M-4.83 12.27 C-4.83 12.25, -4.82 12.24, -4.82 12.23 M-4.83 12.27 C-4.83 12.25, -4.82 12.24, -4.82 12.23 M-4.82 12.23 C-4.82 12.22, -4.81 12.21, -4.8 12.19 M-4.82 12.23 C-4.81 12.21, -4.81 12.2, -4.8 12.19 M-4.8 12.19 C-4.79 12.18, -4.78 12.17, -4.77 12.16 M-4.8 12.19 C-4.79 12.18, -4.78 12.16, -4.77 12.16 M-4.77 12.16 C-4.76 12.15, -4.76 12.14, -4.74 12.13 M-4.77 12.16 C-4.76 12.15, -4.75 12.14, -4.74 12.13 M-4.74 12.13 C-4.73 12.12, -4.71 12.12, -4.7 12.11 M-4.74 12.13 C-4.73 12.12, -4.72 12.12, -4.7 12.11 M-4.7 12.11 C-4.69 12.1, -4.68 12.1, -4.66 12.1 M-4.7 12.11 C-4.69 12.1, -4.68 12.1, -4.66 12.1 M-4.66 12.1 C-4.65 12.09, -4.63 12.09, -4.62 12.09 M-4.66 12.1 C-4.64 12.09, -4.63 12.09, -4.62 12.09 M-4.62 12.09 C-3.49 12.09, -2.37 12.09, -1.76 12.09 M-4.62 12.09 C-3.98 12.09, -3.35 12.09, -1.76 12.09 M-1.76 12.09 C-1.76 8.46, -1.76 4.83, -1.76 1.76 M-1.76 12.09 C-1.76 9.95, -1.76 7.81, -1.76 1.76 M-1.76 1.76 C-2.8 1.76, -3.85 1.76, -4.62 1.76 M-1.76 1.76 C-2.55 1.76, -3.34 1.76, -4.62 1.76 M-4.62 1.76 C-4.62 1.76, -4.62 1.76, -4.62 1.76 M-4.62 1.76 C-4.62 1.76, -4.62 1.76, -4.62 1.76 M-4.62 1.76 C-4.63 1.76, -4.64 1.76, -4.66 1.75 M-4.62 1.76 C-4.63 1.76, -4.64 1.75, -4.66 1.75 M-4.66 1.75 C-4.67 1.75, -4.68 1.75, -4.7 1.74 M-4.66 1.75 C-4.67 1.75, -4.68 1.75, -4.7 1.74 M-4.7 1.74 C-4.72 1.73, -4.73 1.73, -4.74 1.72 M-4.7 1.74 C-4.72 1.73, -4.73 1.72, -4.74 1.72 M-4.74 1.72 C-4.75 1.71, -4.76 1.7, -4.77 1.69 M-4.74 1.72 C-4.75 1.71, -4.76 1.7, -4.77 1.69 M-4.77 1.69 C-4.78 1.68, -4.79 1.67, -4.8 1.66 M-4.77 1.69 C-4.78 1.69, -4.78 1.68, -4.8 1.66 M-4.8 1.66 C-4.81 1.65, -4.81 1.64, -4.82 1.62 M-4.8 1.66 C-4.8 1.65, -4.81 1.64, -4.82 1.62 M-4.82 1.62 C-4.82 1.61, -4.83 1.6, -4.83 1.58 M-4.82 1.62 C-4.82 1.61, -4.83 1.6, -4.83 1.58 M-4.83 1.58 C-4.83 1.57, -4.83 1.56, -4.84 1.54 M-4.83 1.58 C-4.83 1.57, -4.83 1.56, -4.84 1.54 M-4.84 1.54 C-4.84 1.17, -4.84 0.8, -4.84 0.22 M-4.84 1.54 C-4.84 1.26, -4.84 0.98, -4.84 0.22 M-4.84 0.22 C-4.84 0.22, -4.84 0.22, -4.84 0.22 M-4.84 0.22 C-4.84 0.22, -4.84 0.22, -4.84 0.22 M-4.84 0.22 C-4.84 0.21, -4.83 0.19, -4.83 0.18 M-4.84 0.22 C-4.84 0.21, -4.83 0.19, -4.83 0.18 M-4.83 0.18 C-4.83 0.16, -4.82 0.15, -4.82 0.13 M-4.83 0.18 C-4.83 0.17, -4.83 0.16, -4.82 0.13 M-4.82 0.13 C-4.81 0.13, -4.81 0.12, -4.8 0.1 M-4.82 0.13 C-4.81 0.12, -4.81 0.11, -4.8 0.1 M-4.8 0.1 C-4.79 0.09, -4.78 0.07, -4.77 0.06 M-4.8 0.1 C-4.79 0.09, -4.78 0.08, -4.77 0.06 M-4.77 0.06 C-4.76 0.06, -4.75 0.05, -4.74 0.04 M-4.77 0.06 C-4.76 0.06, -4.75 0.05, -4.74 0.04 M-4.74 0.04 C-4.73 0.03, -4.72 0.03, -4.7 0.02 M-4.74 0.04 C-4.73 0.03, -4.72 0.03, -4.7 0.02 M-4.7 0.02 C-4.69 0.01, -4.68 0.01, -4.66 0 M-4.7 0.02 C-4.69 0.01, -4.69 0.01, -4.66 0 M-4.66 0 C-4.65 0, -4.64 0, -4.62 0 M-4.66 0 C-4.65 0, -4.64 0, -4.62 0 M-4.62 0 C-3.18 0, -1.75 0, 0 0 M-4.62 0 C-2.82 0, -1.03 0, 0 0 M0 0 C0 0, 0 0, 0 0 M0 0 C0 0, 0 0, 0 0 M0 0 C0 0, 0 0, 0 0 M0 0 C0 0, 0 0, 0 0" stroke="#00000000" stroke-width="1" fill="none"></path></g></g><g stroke-linecap="round"><g transform="translate(955.3871560096741 370.9027523994446) rotate(0 -2.4000000953674316 6.92477011680603)" fill-rule="evenodd"><path d="M0 0 L0 0 L0.04 0 L0.09 0.02 L0.12 0.04 L0.16 0.06 L0.18 0.1 L0.2 0.13 L0.22 0.18 L0.22 0.22 L0.22 1.54 L0.22 1.54 L0.22 1.58 L0.2 1.62 L0.18 1.66 L0.16 1.69 L0.12 1.72 L0.09 1.74 L0.04 1.75 L0 1.76 L-3.26 1.76 L-3.26 12.09 L-0.02 12.09 L-0.02 12.09 L0.03 12.1 L0.07 12.11 L0.1 12.13 L0.14 12.16 L0.16 12.19 L0.18 12.23 L0.2 12.27 L0.2 12.31 L0.2 13.63 L0.2 13.63 L0.2 13.67 L0.18 13.71 L0.16 13.75 L0.14 13.78 L0.1 13.81 L0.07 13.83 L0.03 13.85 L-0.02 13.85 L-5.02 13.85 L-5.02 0 L0 0 L0 0" stroke="none" stroke-width="0" fill="#4285f4" fill-rule="evenodd"></path><path d="M0 0 C0 0, 0 0, 0 0 M0 0 C0 0, 0 0, 0 0 M0 0 C0.02 0, 0.03 0, 0.04 0 M0 0 C0.01 0, 0.02 0, 0.04 0 M0.04 0 C0.06 0.01, 0.07 0.01, 0.09 0.02 M0.04 0 C0.06 0.01, 0.07 0.01, 0.09 0.02 M0.09 0.02 C0.1 0.02, 0.11 0.03, 0.12 0.04 M0.09 0.02 C0.1 0.03, 0.11 0.03, 0.12 0.04 M0.12 0.04 C0.13 0.04, 0.14 0.05, 0.16 0.06 M0.12 0.04 C0.14 0.05, 0.15 0.06, 0.16 0.06 M0.16 0.06 C0.17 0.08, 0.18 0.09, 0.18 0.1 M0.16 0.06 C0.16 0.08, 0.17 0.09, 0.18 0.1 M0.18 0.1 C0.19 0.11, 0.19 0.11, 0.2 0.13 M0.18 0.1 C0.19 0.11, 0.2 0.13, 0.2 0.13 M0.2 0.13 C0.21 0.15, 0.21 0.16, 0.22 0.18 M0.2 0.13 C0.21 0.15, 0.21 0.17, 0.22 0.18 M0.22 0.18 C0.22 0.19, 0.22 0.2, 0.22 0.22 M0.22 0.18 C0.22 0.19, 0.22 0.21, 0.22 0.22 M0.22 0.22 C0.22 0.52, 0.22 0.82, 0.22 1.54 M0.22 0.22 C0.22 0.56, 0.22 0.89, 0.22 1.54 M0.22 1.54 C0.22 1.54, 0.22 1.54, 0.22 1.54 M0.22 1.54 C0.22 1.54, 0.22 1.54, 0.22 1.54 M0.22 1.54 C0.22 1.55, 0.22 1.57, 0.22 1.58 M0.22 1.54 C0.22 1.55, 0.22 1.57, 0.22 1.58 M0.22 1.58 C0.21 1.6, 0.21 1.61, 0.2 1.62 M0.22 1.58 C0.21 1.6, 0.21 1.61, 0.2 1.62 M0.2 1.62 C0.2 1.63, 0.19 1.64, 0.18 1.66 M0.2 1.62 C0.2 1.64, 0.19 1.65, 0.18 1.66 M0.18 1.66 C0.17 1.67, 0.17 1.68, 0.16 1.69 M0.18 1.66 C0.18 1.67, 0.17 1.68, 0.16 1.69 M0.16 1.69 C0.14 1.7, 0.13 1.71, 0.12 1.72 M0.16 1.69 C0.15 1.7, 0.14 1.71, 0.12 1.72 M0.12 1.72 C0.11 1.73, 0.1 1.73, 0.09 1.74 M0.12 1.72 C0.11 1.73, 0.1 1.74, 0.09 1.74 M0.09 1.74 C0.07 1.74, 0.06 1.75, 0.04 1.75 M0.09 1.74 C0.08 1.74, 0.07 1.75, 0.04 1.75 M0.04 1.75 C0.03 1.75, 0.01 1.76, 0 1.76 M0.04 1.75 C0.03 1.75, 0.02 1.76, 0 1.76 M0 1.76 C-0.88 1.76, -1.76 1.76, -3.26 1.76 M0 1.76 C-1.16 1.76, -2.32 1.76, -3.26 1.76 M-3.26 1.76 C-3.26 5.66, -3.26 9.55, -3.26 12.09 M-3.26 1.76 C-3.26 4.86, -3.26 7.95, -3.26 12.09 M-3.26 12.09 C-2.23 12.09, -1.2 12.09, -0.02 12.09 M-3.26 12.09 C-2.17 12.09, -1.07 12.09, -0.02 12.09 M-0.02 12.09 C-0.02 12.09, -0.02 12.09, -0.02 12.09 M-0.02 12.09 C-0.02 12.09, -0.02 12.09, -0.02 12.09 M-0.02 12.09 C0 12.09, 0.01 12.09, 0.03 12.1 M-0.02 12.09 C-0.01 12.09, 0.01 12.09, 0.03 12.1 M0.03 12.1 C0.04 12.1, 0.04 12.1, 0.07 12.11 M0.03 12.1 C0.04 12.1, 0.05 12.1, 0.07 12.11 M0.07 12.11 C0.08 12.11, 0.09 12.12, 0.1 12.13 M0.07 12.11 C0.08 12.11, 0.08 12.12, 0.1 12.13 M0.1 12.13 C0.11 12.14, 0.12 12.14, 0.14 12.16 M0.1 12.13 C0.12 12.14, 0.13 12.15, 0.14 12.16 M0.14 12.16 C0.15 12.17, 0.16 12.18, 0.16 12.19 M0.14 12.16 C0.15 12.17, 0.15 12.18, 0.16 12.19 M0.16 12.19 C0.17 12.2, 0.18 12.22, 0.18 12.23 M0.16 12.19 C0.17 12.2, 0.18 12.22, 0.18 12.23 M0.18 12.23 C0.19 12.24, 0.19 12.26, 0.2 12.27 M0.18 12.23 C0.19 12.24, 0.19 12.25, 0.2 12.27 M0.2 12.27 C0.2 12.28, 0.2 12.29, 0.2 12.31 M0.2 12.27 C0.2 12.28, 0.2 12.29, 0.2 12.31 M0.2 12.31 C0.2 12.63, 0.2 12.94, 0.2 13.63 M0.2 12.31 C0.2 12.73, 0.2 13.15, 0.2 13.63 M0.2 13.63 C0.2 13.63, 0.2 13.63, 0.2 13.63 M0.2 13.63 C0.2 13.63, 0.2 13.63, 0.2 13.63 M0.2 13.63 C0.2 13.64, 0.2 13.65, 0.2 13.67 M0.2 13.63 C0.2 13.64, 0.2 13.66, 0.2 13.67 M0.2 13.67 C0.19 13.69, 0.19 13.7, 0.18 13.71 M0.2 13.67 C0.19 13.68, 0.19 13.7, 0.18 13.71 M0.18 13.71 C0.18 13.73, 0.17 13.74, 0.16 13.75 M0.18 13.71 C0.18 13.72, 0.18 13.73, 0.16 13.75 M0.16 13.75 C0.16 13.76, 0.15 13.77, 0.14 13.78 M0.16 13.75 C0.15 13.76, 0.14 13.78, 0.14 13.78 M0.14 13.78 C0.13 13.79, 0.12 13.8, 0.1 13.81 M0.14 13.78 C0.13 13.79, 0.12 13.8, 0.1 13.81 M0.1 13.81 C0.1 13.82, 0.09 13.82, 0.07 13.83 M0.1 13.81 C0.1 13.82, 0.09 13.82, 0.07 13.83 M0.07 13.83 C0.05 13.84, 0.04 13.84, 0.03 13.85 M0.07 13.83 C0.06 13.84, 0.05 13.84, 0.03 13.85 M0.03 13.85 C0.02 13.85, 0.01 13.85, -0.02 13.85 M0.03 13.85 C0.01 13.85, 0 13.85, -0.02 13.85 M-0.02 13.85 C-1.71 13.85, -3.4 13.85, -5.02 13.85 M-0.02 13.85 C-1.77 13.85, -3.52 13.85, -5.02 13.85 M-5.02 13.85 C-5.02 10.97, -5.02 8.09, -5.02 0 M-5.02 13.85 C-5.02 9, -5.02 4.14, -5.02 0 M-5.02 0 C-3.2 0, -1.39 0, 0 0 M-5.02 0 C-3.72 0, -2.42 0, 0 0 M0 0 C0 0, 0 0, 0 0 M0 0 C0 0, 0 0, 0 0 M0 0 C0 0, 0 0, 0 0 M0 0 C0 0, 0 0, 0 0" stroke="#00000000" stroke-width="1" fill="none"></path></g></g><g stroke-linecap="round"><g transform="translate(968.3412837982178 375.4091739654541) rotate(0 -0.5045871734619141 2.4238529205322266)" fill-rule="evenodd"><path d="M0 0 L0 1.7 L0.07 1.72 L1.64 1.17 L1.97 2.12 L0.38 2.66 L0.34 2.78 L1.43 4.25 L0.61 4.85 L-0.46 3.38 L-0.55 3.38 L-1.62 4.85 L-2.44 4.25 L-1.36 2.78 L-1.39 2.67 L-2.98 2.12 L-2.65 1.17 L-1.09 1.73 L-1.01 1.7 L-1.01 0 L0 0 L0 0" stroke="none" stroke-width="0" fill="#4285f4" fill-rule="evenodd"></path><path d="M0 0 C0 0.43, 0 0.85, 0 1.7 M0 0 C0 0.44, 0 0.88, 0 1.7 M0 1.7 C0.03 1.71, 0.05 1.72, 0.07 1.72 M0 1.7 C0.02 1.7, 0.04 1.71, 0.07 1.72 M0.07 1.72 C0.42 1.6, 0.76 1.48, 1.64 1.17 M0.07 1.72 C0.51 1.57, 0.94 1.41, 1.64 1.17 M1.64 1.17 C1.75 1.47, 1.85 1.77, 1.97 2.12 M1.64 1.17 C1.74 1.46, 1.84 1.75, 1.97 2.12 M1.97 2.12 C1.5 2.28, 1.03 2.44, 0.38 2.66 M1.97 2.12 C1.63 2.24, 1.29 2.35, 0.38 2.66 M0.38 2.66 C0.37 2.69, 0.36 2.72, 0.34 2.78 M0.38 2.66 C0.37 2.7, 0.35 2.74, 0.34 2.78 M0.34 2.78 C0.69 3.26, 1.05 3.74, 1.43 4.25 M0.34 2.78 C0.6 3.12, 0.85 3.47, 1.43 4.25 M1.43 4.25 C1.23 4.39, 1.04 4.53, 0.61 4.85 M1.43 4.25 C1.13 4.47, 0.82 4.69, 0.61 4.85 M0.61 4.85 C0.25 4.35, -0.11 3.85, -0.46 3.38 M0.61 4.85 C0.28 4.39, -0.06 3.93, -0.46 3.38 M-0.46 3.38 C-0.48 3.38, -0.51 3.38, -0.55 3.38 M-0.46 3.38 C-0.48 3.38, -0.51 3.38, -0.55 3.38 M-0.55 3.38 C-0.79 3.7, -1.02 4.03, -1.62 4.85 M-0.55 3.38 C-0.9 3.85, -1.24 4.33, -1.62 4.85 M-1.62 4.85 C-1.8 4.72, -1.97 4.59, -2.44 4.25 M-1.62 4.85 C-1.89 4.65, -2.16 4.45, -2.44 4.25 M-2.44 4.25 C-2.19 3.9, -1.93 3.56, -1.36 2.78 M-2.44 4.25 C-2.07 3.75, -1.7 3.25, -1.36 2.78 M-1.36 2.78 C-1.37 2.74, -1.38 2.71, -1.39 2.67 M-1.36 2.78 C-1.37 2.76, -1.37 2.73, -1.39 2.67 M-1.39 2.67 C-1.89 2.5, -2.39 2.33, -2.98 2.12 M-1.39 2.67 C-1.96 2.47, -2.52 2.28, -2.98 2.12 M-2.98 2.12 C-2.9 1.89, -2.82 1.65, -2.65 1.17 M-2.98 2.12 C-2.87 1.81, -2.76 1.49, -2.65 1.17 M-2.65 1.17 C-2.09 1.37, -1.53 1.57, -1.09 1.73 M-2.65 1.17 C-2.1 1.37, -1.55 1.57, -1.09 1.73 M-1.09 1.73 C-1.06 1.72, -1.03 1.71, -1.01 1.7 M-1.09 1.73 C-1.07 1.72, -1.05 1.71, -1.01 1.7 M-1.01 1.7 C-1.01 1.11, -1.01 0.53, -1.01 0 M-1.01 1.7 C-1.01 1.31, -1.01 0.91, -1.01 0 M-1.01 0 C-0.75 0, -0.5 0, 0 0 M-1.01 0 C-0.62 0, -0.22 0, 0 0 M0 0 C0 0, 0 0, 0 0 M0 0 C0 0, 0 0, 0 0 M0 0 C0 0, 0 0, 0 0 M0 0 C0 0, 0 0, 0 0" stroke="#00000000" stroke-width="1" fill="none"></path></g></g><g stroke-linecap="round"><g transform="translate(956.4220180511475 375.4091739654541) rotate(0 -0.5045870542526245 2.3999991416931152)" fill-rule="evenodd"><path d="M0 0 L0 1.68 L0.07 1.71 L1.64 1.16 L1.97 2.11 L0.38 2.64 L0.34 2.76 L1.43 4.21 L0.61 4.8 L-0.46 3.35 L-0.56 3.35 L-1.62 4.8 L-2.44 4.21 L-1.36 2.75 L-1.39 2.64 L-2.98 2.1 L-2.65 1.16 L-1.09 1.71 L-1.01 1.68 L-1.01 0 L0 0 L0 0" stroke="none" stroke-width="0" fill="#4285f4" fill-rule="evenodd"></path><path d="M0 0 C0 0.53, 0 1.07, 0 1.68 M0 0 C0 0.39, 0 0.78, 0 1.68 M0 1.68 C0.02 1.69, 0.03 1.7, 0.07 1.71 M0 1.68 C0.01 1.69, 0.03 1.69, 0.07 1.71 M0.07 1.71 C0.43 1.58, 0.8 1.46, 1.64 1.16 M0.07 1.71 C0.56 1.54, 1.05 1.37, 1.64 1.16 M1.64 1.16 C1.76 1.5, 1.88 1.84, 1.97 2.11 M1.64 1.16 C1.76 1.5, 1.88 1.84, 1.97 2.11 M1.97 2.11 C1.43 2.29, 0.89 2.47, 0.38 2.64 M1.97 2.11 C1.49 2.27, 1.02 2.43, 0.38 2.64 M0.38 2.64 C0.37 2.67, 0.36 2.69, 0.34 2.76 M0.38 2.64 C0.37 2.67, 0.36 2.69, 0.34 2.76 M0.34 2.76 C0.68 3.22, 1.03 3.68, 1.43 4.21 M0.34 2.76 C0.7 3.24, 1.06 3.72, 1.43 4.21 M1.43 4.21 C1.23 4.35, 1.03 4.5, 0.61 4.8 M1.43 4.21 C1.25 4.34, 1.07 4.47, 0.61 4.8 M0.61 4.8 C0.2 4.25, -0.21 3.69, -0.46 3.35 M0.61 4.8 C0.38 4.5, 0.16 4.19, -0.46 3.35 M-0.46 3.35 C-0.48 3.35, -0.5 3.35, -0.56 3.35 M-0.46 3.35 C-0.49 3.35, -0.53 3.35, -0.56 3.35 M-0.56 3.35 C-0.78 3.66, -1.01 3.97, -1.62 4.8 M-0.56 3.35 C-0.89 3.8, -1.21 4.25, -1.62 4.8 M-1.62 4.8 C-1.9 4.6, -2.18 4.4, -2.44 4.21 M-1.62 4.8 C-1.81 4.67, -1.99 4.53, -2.44 4.21 M-2.44 4.21 C-2.18 3.85, -1.92 3.5, -1.36 2.75 M-2.44 4.21 C-2.15 3.81, -1.85 3.41, -1.36 2.75 M-1.36 2.75 C-1.37 2.73, -1.38 2.7, -1.39 2.64 M-1.36 2.75 C-1.37 2.71, -1.38 2.68, -1.39 2.64 M-1.39 2.64 C-1.96 2.45, -2.52 2.26, -2.98 2.1 M-1.39 2.64 C-1.89 2.47, -2.4 2.3, -2.98 2.1 M-2.98 2.1 C-2.91 1.91, -2.85 1.71, -2.65 1.16 M-2.98 2.1 C-2.9 1.88, -2.83 1.66, -2.65 1.16 M-2.65 1.16 C-2.03 1.37, -1.42 1.59, -1.09 1.71 M-2.65 1.16 C-2.14 1.34, -1.63 1.52, -1.09 1.71 M-1.09 1.71 C-1.07 1.7, -1.06 1.69, -1.01 1.68 M-1.09 1.71 C-1.06 1.7, -1.03 1.68, -1.01 1.68 M-1.01 1.68 C-1.01 1.24, -1.01 0.8, -1.01 0 M-1.01 1.68 C-1.01 1.07, -1.01 0.47, -1.01 0 M-1.01 0 C-0.73 0, -0.46 0, 0 0 M-1.01 0 C-0.78 0, -0.54 0, 0 0 M0 0 C0 0, 0 0, 0 0 M0 0 C0 0, 0 0, 0 0 M0 0 C0 0, 0 0, 0 0 M0 0 C0 0, 0 0, 0 0" stroke="#00000000" stroke-width="1" fill="none"></path></g></g><g stroke-linecap="round"><g transform="translate(962.3559627532959 375.4091739654541) rotate(0 -0.5064220428466797 2.401834487915039)" fill-rule="evenodd"><path d="M0 0 L0 1.68 L0.07 1.71 L1.64 1.16 L1.97 2.11 L0.38 2.64 L0.34 2.76 L1.43 4.21 L0.61 4.8 L-0.46 3.35 L-0.56 3.35 L-1.62 4.8 L-2.44 4.21 L-1.37 2.76 L-1.39 2.64 L-2.98 2.11 L-2.66 1.16 L-1.1 1.71 L-1.01 1.68 L-1.01 0 L0 0 L0 0" stroke="none" stroke-width="0" fill="#4285f4" fill-rule="evenodd"></path><path d="M0 0 C0 0.34, 0 0.68, 0 1.68 M0 0 C0 0.34, 0 0.68, 0 1.68 M0 1.68 C0.02 1.69, 0.05 1.7, 0.07 1.71 M0 1.68 C0.02 1.69, 0.04 1.7, 0.07 1.71 M0.07 1.71 C0.58 1.53, 1.1 1.35, 1.64 1.16 M0.07 1.71 C0.59 1.53, 1.11 1.35, 1.64 1.16 M1.64 1.16 C1.73 1.41, 1.82 1.67, 1.97 2.11 M1.64 1.16 C1.73 1.41, 1.82 1.66, 1.97 2.11 M1.97 2.11 C1.56 2.24, 1.16 2.38, 0.38 2.64 M1.97 2.11 C1.48 2.27, 0.99 2.44, 0.38 2.64 M0.38 2.64 C0.36 2.69, 0.35 2.73, 0.34 2.76 M0.38 2.64 C0.37 2.67, 0.36 2.7, 0.34 2.76 M0.34 2.76 C0.73 3.28, 1.12 3.8, 1.43 4.21 M0.34 2.76 C0.62 3.13, 0.9 3.5, 1.43 4.21 M1.43 4.21 C1.23 4.36, 1.02 4.5, 0.61 4.8 M1.43 4.21 C1.16 4.4, 0.89 4.59, 0.61 4.8 M0.61 4.8 C0.26 4.33, -0.09 3.85, -0.46 3.35 M0.61 4.8 C0.25 4.32, -0.11 3.83, -0.46 3.35 M-0.46 3.35 C-0.49 3.35, -0.52 3.35, -0.56 3.35 M-0.46 3.35 C-0.49 3.35, -0.52 3.35, -0.56 3.35 M-0.56 3.35 C-0.84 3.74, -1.13 4.13, -1.62 4.8 M-0.56 3.35 C-0.84 3.73, -1.12 4.11, -1.62 4.8 M-1.62 4.8 C-1.89 4.61, -2.17 4.41, -2.44 4.21 M-1.62 4.8 C-1.79 4.68, -1.95 4.57, -2.44 4.21 M-2.44 4.21 C-2.22 3.91, -1.99 3.6, -1.37 2.76 M-2.44 4.21 C-2.21 3.9, -1.98 3.58, -1.37 2.76 M-1.37 2.76 C-1.37 2.73, -1.38 2.7, -1.39 2.64 M-1.37 2.76 C-1.37 2.72, -1.38 2.68, -1.39 2.64 M-1.39 2.64 C-1.72 2.53, -2.04 2.42, -2.98 2.11 M-1.39 2.64 C-1.91 2.47, -2.42 2.3, -2.98 2.11 M-2.98 2.11 C-2.9 1.86, -2.81 1.61, -2.66 1.16 M-2.98 2.11 C-2.86 1.74, -2.73 1.38, -2.66 1.16 M-2.66 1.16 C-2.31 1.28, -1.96 1.41, -1.1 1.71 M-2.66 1.16 C-2.09 1.36, -1.52 1.56, -1.1 1.71 M-1.1 1.71 C-1.07 1.7, -1.04 1.69, -1.01 1.68 M-1.1 1.71 C-1.08 1.7, -1.06 1.7, -1.01 1.68 M-1.01 1.68 C-1.01 1.25, -1.01 0.82, -1.01 0 M-1.01 1.68 C-1.01 1.2, -1.01 0.72, -1.01 0 M-1.01 0 C-0.7 0, -0.39 0, 0 0 M-1.01 0 C-0.76 0, -0.5 0, 0 0 M0 0 C0 0, 0 0, 0 0 M0 0 C0 0, 0 0, 0 0 M0 0 C0 0, 0 0, 0 0 M0 0 C0 0, 0 0, 0 0" stroke="#00000000" stroke-width="1" fill="none"></path></g></g><g stroke-linecap="round" transform="translate(590 530) rotate(0 120 40)"><path d="M8 0 L235.5 0.5 L238 2 L239.5 4.5 L240 8 L239.5 75.5 L238 78 L235.5 79.5 L232 80 L4.5 79.5 L2 78 L0.5 75.5 L0 72 L0 8 L0.5 4.5 L2 2 L4.5 0.5 L8 0" stroke="none" stroke-width="0" fill="#FFF"></path><path d="M8 0 M8 0 C63.06 0, 118.11 0, 232 0 M8 0 C61.3 0, 114.59 0, 232 0 M232 0 C237.33 0, 240 2.67, 240 8 M232 0 C237.33 0, 240 2.67, 240 8 M240 8 C240 22.12, 240 36.24, 240 72 M240 8 C240 24.19, 240 40.37, 240 72 M240 72 C240 77.33, 237.33 80, 232 80 M240 72 C240 77.33, 237.33 80, 232 80 M232 80 C171.51 80, 111.02 80, 8 80 M232 80 C146.4 80, 60.81 80, 8 80 M8 80 C2.67 80, 0 77.33, 0 72 M8 80 C2.67 80, 0 77.33, 0 72 M0 72 C0 54.17, 0 36.33, 0 8 M0 72 C0 49, 0 26.01, 0 8 M0 8 C0 2.67, 2.67 0, 8 0 M0 8 C0 2.67, 2.67 0, 8 0" stroke="#202124" stroke-width="1" fill="none"></path></g><g transform="translate(606 546) rotate(0 39.5 9.5)"><text x="0" y="15" font-family="Helvetica, Segoe UI Emoji" font-size="16px" fill="#1A73E8" text-anchor="start" style="white-space: pre;" direction="ltr">Cloud SQL</text></g><g transform="translate(606 568) rotate(0 44 9.5)"><text x="0" y="15" font-family="Helvetica, Segoe UI Emoji" font-size="16px" fill="#202124" text-anchor="start" style="white-space: pre;" direction="ltr">PostgreSQL</text></g><g stroke-linecap="round"><g transform="translate(794.670000076294 556.4399995803833) rotate(0 3.6649999618530273 3.455000400543213)" fill-rule="evenodd"><path d="M0 0 L0 3.01 L7.33 6.91 L7.33 3.9 L0 0 L0 0" stroke="none" stroke-width="0" fill="#aecbfa" fill-rule="evenodd"></path><path d="M0 0 C0 0.72, 0 1.44, 0 3.01 M0 0 C0 0.96, 0 1.91, 0 3.01 M0 3.01 C2.25 4.21, 4.5 5.4, 7.33 6.91 M0 3.01 C2.56 4.37, 5.12 5.73, 7.33 6.91 M7.33 6.91 C7.33 6.13, 7.33 5.35, 7.33 3.9 M7.33 6.91 C7.33 5.85, 7.33 4.8, 7.33 3.9 M7.33 3.9 C4.62 2.46, 1.91 1.02, 0 0 M7.33 3.9 C5.33 2.84, 3.33 1.77, 0 0 M0 0 C0 0, 0 0, 0 0 M0 0 C0 0, 0 0, 0 0 M0 0 C0 0, 0 0, 0 0 M0 0 C0 0, 0 0, 0 0" stroke="#00000000" stroke-width="1" fill="none"></path></g></g><g stroke-linecap="round"><g transform="translate(794.670000076294 561.0900001525879) rotate(0 3.6649999618530273 3.4549999237060547)" fill-rule="evenodd"><path d="M0 0 L0 3.01 L7.33 6.91 L7.33 3.9 L0 0 L0 0" stroke="none" stroke-width="0" fill="#aecbfa" fill-rule="evenodd"></path><path d="M0 0 C0 1.2, 0 2.4, 0 3.01 M0 0 C0 1.02, 0 2.05, 0 3.01 M0 3.01 C1.87 4.01, 3.75 5, 7.33 6.91 M0 3.01 C1.77 3.95, 3.53 4.89, 7.33 6.91 M7.33 6.91 C7.33 5.78, 7.33 4.64, 7.33 3.9 M7.33 6.91 C7.33 5.8, 7.33 4.68, 7.33 3.9 M7.33 3.9 C5.7 3.03, 4.06 2.16, 0 0 M7.33 3.9 C5.21 2.77, 3.09 1.64, 0 0 M0 0 C0 0, 0 0, 0 0 M0 0 C0 0, 0 0, 0 0 M0 0 C0 0, 0 0, 0 0 M0 0 C0 0, 0 0, 0 0" stroke="#00000000" stroke-width="1" fill="none"></path></g></g><g stroke-linecap="round"><g transform="translate(802 563.3500003814697) rotate(0 3.6649999618530273 -3.455000400543213)" fill-rule="evenodd"><path d="M0 0 L7.33 -3.9 L7.33 -6.91 L0 -3.01 L0 0 L0 0" stroke="none" stroke-width="0" fill="#669df6" fill-rule="evenodd"></path><path d="M0 0 C2.47 -1.32, 4.95 -2.63, 7.33 -3.9 M0 0 C1.71 -0.91, 3.42 -1.82, 7.33 -3.9 M7.33 -3.9 C7.33 -4.87, 7.33 -5.85, 7.33 -6.91 M7.33 -3.9 C7.33 -4.62, 7.33 -5.33, 7.33 -6.91 M7.33 -6.91 C5.56 -5.97, 3.79 -5.02, 0 -3.01 M7.33 -6.91 C5.66 -6.02, 3.99 -5.13, 0 -3.01 M0 -3.01 C0 -1.81, 0 -0.6, 0 0 M0 -3.01 C0 -2.15, 0 -1.29, 0 0 M0 0 C0 0, 0 0, 0 0 M0 0 C0 0, 0 0, 0 0 M0 0 C0 0, 0 0, 0 0 M0 0 C0 0, 0 0, 0 0" stroke="#00000000" stroke-width="1" fill="none"></path></g></g><g stroke-linecap="round"><g transform="translate(802 568) rotate(0 3.6649999618530273 -3.4549999237060547)" fill-rule="evenodd"><path d="M0 0 L7.33 -3.9 L7.33 -6.91 L0 -3.01 L0 0 L0 0" stroke="none" stroke-width="0" fill="#669df6" fill-rule="evenodd"></path><path d="M0 0 C1.6 -0.85, 3.21 -1.71, 7.33 -3.9 M0 0 C2.61 -1.39, 5.21 -2.77, 7.33 -3.9 M7.33 -3.9 C7.33 -5.07, 7.33 -6.25, 7.33 -6.91 M7.33 -3.9 C7.33 -5.03, 7.33 -6.16, 7.33 -6.91 M7.33 -6.91 C5.39 -5.88, 3.45 -4.85, 0 -3.01 M7.33 -6.91 C4.65 -5.48, 1.97 -4.06, 0 -3.01 M0 -3.01 C0 -2.27, 0 -1.53, 0 0 M0 -3.01 C0 -2.25, 0 -1.49, 0 0 M0 0 C0 0, 0 0, 0 0 M0 0 C0 0, 0 0, 0 0 M0 0 C0 0, 0 0, 0 0 M0 0 C0 0, 0 0, 0 0" stroke="#00000000" stroke-width="1" fill="none"></path></g></g><g stroke-linecap="round"><g transform="translate(809.329999923706 554.9099998474121) rotate(0 -3.6649999618530273 -3.4549999237060547)" fill-rule="evenodd"><path d="M0 0 L0 -3.01 L-7.33 -6.91 L-7.33 -3.9 L0 0 L0 0" stroke="none" stroke-width="0" fill="#4285f4" fill-rule="evenodd"></path><path d="M0 0 C0 -0.64, 0 -1.28, 0 -3.01 M0 0 C0 -0.75, 0 -1.5, 0 -3.01 M0 -3.01 C-2.12 -4.14, -4.24 -5.27, -7.33 -6.91 M0 -3.01 C-1.64 -3.88, -3.27 -4.75, -7.33 -6.91 M-7.33 -6.91 C-7.33 -5.74, -7.33 -4.58, -7.33 -3.9 M-7.33 -6.91 C-7.33 -6.13, -7.33 -5.36, -7.33 -3.9 M-7.33 -3.9 C-4.96 -2.64, -2.59 -1.38, 0 0 M-7.33 -3.9 C-4.81 -2.56, -2.3 -1.22, 0 0 M0 0 C0 0, 0 0, 0 0 M0 0 C0 0, 0 0, 0 0 M0 0 C0 0, 0 0, 0 0 M0 0 C0 0, 0 0, 0 0" stroke="#00000000" stroke-width="1" fill="none"></path></g></g><g stroke-linecap="round"><g transform="translate(802 548) rotate(0 -3.6649999618530273 3.4549999237060547)" fill-rule="evenodd"><path d="M0 0 L-7.33 3.9 L-7.33 6.91 L0 3.01 L0 0 L0 0" stroke="none" stroke-width="0" fill="#669df6" fill-rule="evenodd"></path><path d="M0 0 C-2.89 1.54, -5.77 3.07, -7.33 3.9 M0 0 C-2.71 1.44, -5.41 2.88, -7.33 3.9 M-7.33 3.9 C-7.33 4.54, -7.33 5.17, -7.33 6.91 M-7.33 3.9 C-7.33 4.62, -7.33 5.33, -7.33 6.91 M-7.33 6.91 C-5.44 5.9, -3.54 4.9, 0 3.01 M-7.33 6.91 C-5.48 5.92, -3.62 4.94, 0 3.01 M0 3.01 C0 1.93, 0 0.86, 0 0 M0 3.01 C0 1.86, 0 0.71, 0 0 M0 0 C0 0, 0 0, 0 0 M0 0 C0 0, 0 0, 0 0 M0 0 C0 0, 0 0, 0 0 M0 0 C0 0, 0 0, 0 0" stroke="#00000000" stroke-width="1" fill="none"></path></g></g><g stroke-linecap="round"><g transform="translate(794.670000076294 551.8699998855591) rotate(0 3.6649999618530273 3.4600000381469727)" fill-rule="evenodd"><path d="M0 0 L0 3.02 L7.33 6.92 L7.33 3.9 L0 0 L0 0" stroke="none" stroke-width="0" fill="#aecbfa" fill-rule="evenodd"></path><path d="M0 0 C0 0.98, 0 1.95, 0 3.02 M0 0 C0 1.07, 0 2.15, 0 3.02 M0 3.02 C1.49 3.81, 2.98 4.61, 7.33 6.92 M0 3.02 C1.91 4.03, 3.81 5.05, 7.33 6.92 M7.33 6.92 C7.33 6.15, 7.33 5.38, 7.33 3.9 M7.33 6.92 C7.33 6.04, 7.33 5.17, 7.33 3.9 M7.33 3.9 C4.61 2.45, 1.88 1, 0 0 M7.33 3.9 C5.66 3.01, 4 2.13, 0 0 M0 0 C0 0, 0 0, 0 0 M0 0 C0 0, 0 0, 0 0 M0 0 C0 0, 0 0, 0 0 M0 0 C0 0, 0 0, 0 0" stroke="#00000000" stroke-width="1" fill="none"></path></g></g><g stroke-linecap="round"><g transform="translate(802 558.789999961853) rotate(0 3.6649999618530273 -3.4600000381469727)" fill-rule="evenodd"><path d="M0 0 L7.33 -3.9 L7.33 -6.92 L0 -3.02 L0 0 L0 0" stroke="none" stroke-width="0" fill="#669df6" fill-rule="evenodd"></path><path d="M0 0 C2.26 -1.2, 4.52 -2.4, 7.33 -3.9 M0 0 C2.45 -1.3, 4.89 -2.6, 7.33 -3.9 M7.33 -3.9 C7.33 -4.96, 7.33 -6.02, 7.33 -6.92 M7.33 -3.9 C7.33 -4.81, 7.33 -5.73, 7.33 -6.92 M7.33 -6.92 C5.35 -5.87, 3.38 -4.82, 0 -3.02 M7.33 -6.92 C5.52 -5.95, 3.7 -4.99, 0 -3.02 M0 -3.02 C0 -2.16, 0 -1.29, 0 0 M0 -3.02 C0 -1.97, 0 -0.92, 0 0 M0 0 C0 0, 0 0, 0 0 M0 0 C0 0, 0 0, 0 0 M0 0 C0 0, 0 0, 0 0 M0 0 C0 0, 0 0, 0 0" stroke="#00000000" stroke-width="1" fill="none"></path></g></g><g stroke-linecap="round" transform="translate(270 530) rotate(0 120 40)"><path d="M8 0 L235.5 0.5 L238 2 L239.5 4.5 L240 8 L239.5 75.5 L238 78 L235.5 79.5 L232 80 L4.5 79.5 L2 78 L0.5 75.5 L0 72 L0 8 L0.5 4.5 L2 2 L4.5 0.5 L8 0" stroke="none" stroke-width="0" fill="#FFF"></path><path d="M8 0 M8 0 C86.17 0, 164.35 0, 232 0 M8 0 C88.7 0, 169.4 0, 232 0 M232 0 C237.33 0, 240 2.67, 240 8 M232 0 C237.33 0, 240 2.67, 240 8 M240 8 C240 30.17, 240 52.33, 240 72 M240 8 C240 32.2, 240 56.4, 240 72 M240 72 C240 77.33, 237.33 80, 232 80 M240 72 C240 77.33, 237.33 80, 232 80 M232 80 C161.07 80, 90.15 80, 8 80 M232 80 C155.39 80, 78.78 80, 8 80 M8 80 C2.67 80, 0 77.33, 0 72 M8 80 C2.67 80, 0 77.33, 0 72 M0 72 C0 58.04, 0 44.07, 0 8 M0 72 C0 49.14, 0 26.28, 0 8 M0 8 C0 2.67, 2.67 0, 8 0 M0 8 C0 2.67, 2.67 0, 8 0" stroke="#202124" stroke-width="1" fill="none"></path></g><g transform="translate(286 546) rotate(0 51.5 9.5)"><text x="0" y="15" font-family="Helvetica, Segoe UI Emoji" font-size="16px" fill="#1A73E8" text-anchor="start" style="white-space: pre;" direction="ltr">Cloud Storage</text></g><g transform="translate(286 568) rotate(0 49 9.5)"><text x="0" y="15" font-family="Helvetica, Segoe UI Emoji" font-size="16px" fill="#202124" text-anchor="start" style="white-space: pre;" direction="ltr">Static content</text></g><g stroke-linecap="round" transform="translate(472 550) rotate(0 10 3.5)"><path d="M0 0 L20 0 L20 7 L0 7" stroke="none" stroke-width="0" fill="#aecbfa"></path><path d="M0 0 C7.01 0, 14.03 0, 20 0 M0 0 C6.04 0, 12.08 0, 20 0 M20 0 C20 2.16, 20 4.33, 20 7 M20 0 C20 1.62, 20 3.25, 20 7 M20 7 C14.3 7, 8.59 7, 0 7 M20 7 C12.06 7, 4.12 7, 0 7 M0 7 C0 5.28, 0 3.56, 0 0 M0 7 C0 4.8, 0 2.6, 0 0" stroke="transparent" stroke-width="1" fill="none"></path></g><g stroke-linecap="round" transform="translate(490 550) rotate(0 1 3.5)"><path d="M0 0 L2 0 L2 7 L0 7" stroke="none" stroke-width="0" fill="#669df6"></path><path d="M0 0 C0.78 0, 1.56 0, 2 0 M0 0 C0.74 0, 1.48 0, 2 0 M2 0 C2 2.53, 2 5.06, 2 7 M2 0 C2 1.73, 2 3.45, 2 7 M2 7 C1.37 7, 0.74 7, 0 7 M2 7 C1.38 7, 0.75 7, 0 7 M0 7 C0 4.37, 0 1.74, 0 0 M0 7 C0 4.34, 0 1.69, 0 0" stroke="transparent" stroke-width="1" fill="none"></path></g><g stroke-linecap="round"><g transform="translate(492 550) rotate(0 -1 3.5)" fill-rule="evenodd"><path d="M0 0 L-2 0 L-2 7 L0 0 L0 0" stroke="none" stroke-width="0" fill="#4285f4" fill-rule="evenodd"></path><path d="M0 0 C-0.67 0, -1.34 0, -2 0 M0 0 C-0.48 0, -0.97 0, -2 0 M-2 0 C-2 2.43, -2 4.86, -2 7 M-2 0 C-2 1.47, -2 2.94, -2 7 M-2 7 C-1.22 4.26, -0.44 1.53, 0 0 M-2 7 C-1.51 5.3, -1.03 3.6, 0 0 M0 0 C0 0, 0 0, 0 0 M0 0 C0 0, 0 0, 0 0 M0 0 C0 0, 0 0, 0 0 M0 0 C0 0, 0 0, 0 0" stroke="#00000000" stroke-width="1" fill="none"></path></g></g><g stroke-linecap="round" transform="translate(472 550) rotate(0 1 3.5)"><path d="M0 0 L2 0 L2 7 L0 7" stroke="none" stroke-width="0" fill="#669df6"></path><path d="M0 0 C0.52 0, 1.04 0, 2 0 M0 0 C0.55 0, 1.11 0, 2 0 M2 0 C2 1.97, 2 3.95, 2 7 M2 0 C2 1.88, 2 3.76, 2 7 M2 7 C1.54 7, 1.07 7, 0 7 M2 7 C1.55 7, 1.09 7, 0 7 M0 7 C0 4.78, 0 2.56, 0 0 M0 7 C0 4.61, 0 2.22, 0 0" stroke="transparent" stroke-width="1" fill="none"></path></g><g stroke-linecap="round" transform="translate(476 553) rotate(0 3 0.5)"><path d="M0 0 L6 0 L6 1 L0 1" stroke="none" stroke-width="0" fill="#fff"></path><path d="M0 0 C2.15 0, 4.29 0, 6 0 M0 0 C1.43 0, 2.85 0, 6 0 M6 0 C6 0.36, 6 0.72, 6 1 M6 0 C6 0.22, 6 0.44, 6 1 M6 1 C4.32 1, 2.65 1, 0 1 M6 1 C4.3 1, 2.61 1, 0 1 M0 1 C0 0.65, 0 0.31, 0 0 M0 1 C0 0.64, 0 0.28, 0 0" stroke="transparent" stroke-width="1" fill="none"></path></g><g stroke-linecap="round" transform="translate(485 552) rotate(0 1.5 1.5)"><path d="M0.3 0 L3 0.3 L2.7 3 L0 2.7 L0.3 0" stroke="none" stroke-width="0" fill="#fff"></path><path d="M0.3 0 M0.3 0 C0.87 0, 1.44 0, 2.7 0 M0.3 0 C1.04 0, 1.78 0, 2.7 0 M2.7 0 C2.9 0, 3 0.1, 3 0.3 M2.7 0 C2.9 0, 3 0.1, 3 0.3 M3 0.3 C3 0.83, 3 1.37, 3 2.7 M3 0.3 C3 0.98, 3 1.67, 3 2.7 M3 2.7 C3 2.9, 2.9 3, 2.7 3 M3 2.7 C3 2.9, 2.9 3, 2.7 3 M2.7 3 C2.02 3, 1.34 3, 0.3 3 M2.7 3 C2.11 3, 1.52 3, 0.3 3 M0.3 3 C0.1 3, 0 2.9, 0 2.7 M0.3 3 C0.1 3, 0 2.9, 0 2.7 M0 2.7 C0 1.84, 0 0.97, 0 0.3 M0 2.7 C0 2.22, 0 1.73, 0 0.3 M0 0.3 C0 0.1, 0.1 0, 0.3 0 M0 0.3 C0 0.1, 0.1 0, 0.3 0" stroke="transparent" stroke-width="1" fill="none"></path></g><g stroke-linecap="round" transform="translate(472 559) rotate(0 10 3.5)"><path d="M0 0 L20 0 L20 7 L0 7" stroke="none" stroke-width="0" fill="#aecbfa"></path><path d="M0 0 C7.17 0, 14.34 0, 20 0 M0 0 C4.79 0, 9.59 0, 20 0 M20 0 C20 2.2, 20 4.4, 20 7 M20 0 C20 2.44, 20 4.88, 20 7 M20 7 C14.75 7, 9.5 7, 0 7 M20 7 C12.83 7, 5.66 7, 0 7 M0 7 C0 4.77, 0 2.54, 0 0 M0 7 C0 5.33, 0 3.65, 0 0" stroke="transparent" stroke-width="1" fill="none"></path></g><g stroke-linecap="round" transform="translate(490 559) rotate(0 1 3.5)"><path d="M0 0 L2 0 L2 7 L0 7" stroke="none" stroke-width="0" fill="#669df6"></path><path d="M0 0 C0.71 0, 1.42 0, 2 0 M0 0 C0.51 0, 1.01 0, 2 0 M2 0 C2 2.47, 2 4.93, 2 7 M2 0 C2 2.71, 2 5.41, 2 7 M2 7 C1.55 7, 1.1 7, 0 7 M2 7 C1.29 7, 0.59 7, 0 7 M0 7 C0 4.32, 0 1.63, 0 0 M0 7 C0 4.84, 0 2.68, 0 0" stroke="transparent" stroke-width="1" fill="none"></path></g><g stroke-linecap="round"><g transform="translate(492 559) rotate(0 -1 3.5)" fill-rule="evenodd"><path d="M0 0 L-2 0 L-2 7 L0 0 L0 0" stroke="none" stroke-width="0" fill="#4285f4" fill-rule="evenodd"></path><path d="M0 0 C-0.8 0, -1.6 0, -2 0 M0 0 C-0.69 0, -1.39 0, -2 0 M-2 0 C-2 1.73, -2 3.46, -2 7 M-2 0 C-2 2.23, -2 4.46, -2 7 M-2 7 C-1.27 4.46, -0.55 1.91, 0 0 M-2 7 C-1.27 4.44, -0.54 1.88, 0 0 M0 0 C0 0, 0 0, 0 0 M0 0 C0 0, 0 0, 0 0 M0 0 C0 0, 0 0, 0 0 M0 0 C0 0, 0 0, 0 0" stroke="#00000000" stroke-width="1" fill="none"></path></g></g><g stroke-linecap="round" transform="translate(472 559) rotate(0 1 3.5)"><path d="M0 0 L2 0 L2 7 L0 7" stroke="none" stroke-width="0" fill="#669df6"></path><path d="M0 0 C0.4 0, 0.81 0, 2 0 M0 0 C0.6 0, 1.19 0, 2 0 M2 0 C2 2.44, 2 4.89, 2 7 M2 0 C2 1.55, 2 3.09, 2 7 M2 7 C1.31 7, 0.61 7, 0 7 M2 7 C1.21 7, 0.42 7, 0 7 M0 7 C0 4.78, 0 2.57, 0 0 M0 7 C0 4.4, 0 1.8, 0 0" stroke="transparent" stroke-width="1" fill="none"></path></g><g stroke-linecap="round" transform="translate(476 562) rotate(0 3 0.5)"><path d="M0 0 L6 0 L6 1 L0 1" stroke="none" stroke-width="0" fill="#fff"></path><path d="M0 0 C1.78 0, 3.57 0, 6 0 M0 0 C1.89 0, 3.77 0, 6 0 M6 0 C6 0.4, 6 0.79, 6 1 M6 0 C6 0.32, 6 0.64, 6 1 M6 1 C3.86 1, 1.71 1, 0 1 M6 1 C3.83 1, 1.65 1, 0 1 M0 1 C0 0.71, 0 0.42, 0 0 M0 1 C0 0.6, 0 0.21, 0 0" stroke="transparent" stroke-width="1" fill="none"></path></g><g stroke-linecap="round" transform="translate(485 561) rotate(0 1.5 1.5)"><path d="M0.3 0 L3 0.3 L2.7 3 L0 2.7 L0.3 0" stroke="none" stroke-width="0" fill="#fff"></path><path d="M0.3 0 M0.3 0 C1.05 0, 1.81 0, 2.7 0 M0.3 0 C1.06 0, 1.81 0, 2.7 0 M2.7 0 C2.9 0, 3 0.1, 3 0.3 M2.7 0 C2.9 0, 3 0.1, 3 0.3 M3 0.3 C3 1.07, 3 1.84, 3 2.7 M3 0.3 C3 0.93, 3 1.56, 3 2.7 M3 2.7 C3 2.9, 2.9 3, 2.7 3 M3 2.7 C3 2.9, 2.9 3, 2.7 3 M2.7 3 C1.83 3, 0.96 3, 0.3 3 M2.7 3 C1.94 3, 1.17 3, 0.3 3 M0.3 3 C0.1 3, 0 2.9, 0 2.7 M0.3 3 C0.1 3, 0 2.9, 0 2.7 M0 2.7 C0 1.75, 0 0.8, 0 0.3 M0 2.7 C0 1.94, 0 1.19, 0 0.3 M0 0.3 C0 0.1, 0.1 0, 0.3 0 M0 0.3 C0 0.1, 0.1 0, 0.3 0" stroke="transparent" stroke-width="1" fill="none"></path></g><g stroke-linecap="round" transform="translate(110 690) rotate(0 120 40)"><path d="M8 0 L235.5 0.5 L238 2 L239.5 4.5 L240 8 L239.5 75.5 L238 78 L235.5 79.5 L232 80 L4.5 79.5 L2 78 L0.5 75.5 L0 72 L0 8 L0.5 4.5 L2 2 L4.5 0.5 L8 0" stroke="none" stroke-width="0" fill="#FFF"></path><path d="M8 0 M8 0 C66 0, 124 0, 232 0 M8 0 C62.37 0, 116.75 0, 232 0 M232 0 C237.33 0, 240 2.67, 240 8 M232 0 C237.33 0, 240 2.67, 240 8 M240 8 C240 23.25, 240 38.49, 240 72 M240 8 C240 30.83, 240 53.66, 240 72 M240 72 C240 77.33, 237.33 80, 232 80 M240 72 C240 77.33, 237.33 80, 232 80 M232 80 C169.65 80, 107.3 80, 8 80 M232 80 C163.84 80, 95.68 80, 8 80 M8 80 C2.67 80, 0 77.33, 0 72 M8 80 C2.67 80, 0 77.33, 0 72 M0 72 C0 47.45, 0 22.89, 0 8 M0 72 C0 58.75, 0 45.5, 0 8 M0 8 C0 2.67, 2.67 0, 8 0 M0 8 C0 2.67, 2.67 0, 8 0" stroke="#202124" stroke-width="1" fill="none"></path></g><g transform="translate(126 706) rotate(0 52 9.5)"><text x="0" y="15" font-family="Helvetica, Segoe UI Emoji" font-size="16px" fill="#1A73E8" text-anchor="start" style="white-space: pre;" direction="ltr">Cloud Logging</text></g><g transform="translate(126 728) rotate(0 41 9.5)"><text x="0" y="15" font-family="Helvetica, Segoe UI Emoji" font-size="16px" fill="#202124" text-anchor="start" style="white-space: pre;" direction="ltr">Stored logs</text></g><g stroke-linecap="round"><g transform="translate(319.85806465148926 719.3591403961182) rotate(0 -3.2322580814361572 0.0021495819091796875)" fill-rule="evenodd"><path d="M0 0 L0 -2.15 L-4.31 -2.15 L-4.31 -7.54 L-6.46 -7.54 L-6.46 7.54 L0 7.54 L0 5.39 L-4.31 5.39 L-4.31 0 L0 0" stroke="none" stroke-width="0" fill="#4285f4" fill-rule="evenodd"></path><path d="M0 0 C0 -0.81, 0 -1.62, 0 -2.15 M0 0 C0 -0.78, 0 -1.57, 0 -2.15 M0 -2.15 C-1.59 -2.15, -3.17 -2.15, -4.31 -2.15 M0 -2.15 C-1.51 -2.15, -3.01 -2.15, -4.31 -2.15 M-4.31 -2.15 C-4.31 -4.2, -4.31 -6.25, -4.31 -7.54 M-4.31 -2.15 C-4.31 -3.77, -4.31 -5.39, -4.31 -7.54 M-4.31 -7.54 C-5.11 -7.54, -5.91 -7.54, -6.46 -7.54 M-4.31 -7.54 C-5.02 -7.54, -5.73 -7.54, -6.46 -7.54 M-6.46 -7.54 C-6.46 -2.01, -6.46 3.53, -6.46 7.54 M-6.46 -7.54 C-6.46 -4.21, -6.46 -0.87, -6.46 7.54 M-6.46 7.54 C-4.77 7.54, -3.08 7.54, 0 7.54 M-6.46 7.54 C-4.66 7.54, -2.85 7.54, 0 7.54 M0 7.54 C0 6.87, 0 6.2, 0 5.39 M0 7.54 C0 6.92, 0 6.3, 0 5.39 M0 5.39 C-1.42 5.39, -2.85 5.39, -4.31 5.39 M0 5.39 C-1.55 5.39, -3.1 5.39, -4.31 5.39 M-4.31 5.39 C-4.31 3.27, -4.31 1.16, -4.31 0 M-4.31 5.39 C-4.31 3.84, -4.31 2.28, -4.31 0 M-4.31 0 C-3.35 0, -2.39 0, 0 0 M-4.31 0 C-3.43 0, -2.56 0, 0 0 M0 0 C0 0, 0 0, 0 0 M0 0 C0 0, 0 0, 0 0" stroke="#00000000" stroke-width="1" fill="none"></path></g></g><g stroke-linecap="round"><g transform="translate(318.7784948348999 712.8946237564087) rotate(0 7.002151012420654 -2.1526882648468018)" fill-rule="evenodd"><path d="M0 0 L14 0 L14 -4.31 L0 -4.31 L0 0" stroke="none" stroke-width="0" fill="#669df6" fill-rule="evenodd"></path><path d="M0 0 C4.89 0, 9.78 0, 14 0 M0 0 C3.38 0, 6.75 0, 14 0 M14 0 C14 -0.95, 14 -1.9, 14 -4.31 M14 0 C14 -1.68, 14 -3.35, 14 -4.31 M14 -4.31 C8.58 -4.31, 3.16 -4.31, 0 -4.31 M14 -4.31 C9.11 -4.31, 4.22 -4.31, 0 -4.31 M0 -4.31 C0 -2.81, 0 -1.32, 0 0 M0 -4.31 C0 -2.69, 0 -1.07, 0 0 M0 0 C0 0, 0 0, 0 0 M0 0 C0 0, 0 0, 0 0" stroke="#00000000" stroke-width="1" fill="none"></path></g></g><g stroke-linecap="round"><g transform="translate(318.7784948348999 720.4387102127075) rotate(0 7.002151012420654 -2.154839038848877)" fill-rule="evenodd"><path d="M0 0 L14 0 L14 -4.31 L0 -4.31 L0 0" stroke="none" stroke-width="0" fill="#669df6" fill-rule="evenodd"></path><path d="M0 0 C4.94 0, 9.87 0, 14 0 M0 0 C3.01 0, 6.03 0, 14 0 M14 0 C14 -1.35, 14 -2.7, 14 -4.31 M14 0 C14 -1.59, 14 -3.19, 14 -4.31 M14 -4.31 C8.62 -4.31, 3.24 -4.31, 0 -4.31 M14 -4.31 C11.09 -4.31, 8.18 -4.31, 0 -4.31 M0 -4.31 C0 -3.27, 0 -2.23, 0 0 M0 -4.31 C0 -2.84, 0 -1.37, 0 0 M0 0 C0 0, 0 0, 0 0 M0 0 C0 0, 0 0, 0 0" stroke="#00000000" stroke-width="1" fill="none"></path></g></g><g stroke-linecap="round"><g transform="translate(318.7784948348999 727.978494644165) rotate(0 7.002151012420654 -2.1548385620117188)" fill-rule="evenodd"><path d="M0 0 L14 0 L14 -4.31 L0 -4.31 L0 0" stroke="none" stroke-width="0" fill="#669df6" fill-rule="evenodd"></path><path d="M0 0 C3.52 0, 7.04 0, 14 0 M0 0 C4.53 0, 9.05 0, 14 0 M14 0 C14 -1.53, 14 -3.07, 14 -4.31 M14 0 C14 -1.57, 14 -3.14, 14 -4.31 M14 -4.31 C9.6 -4.31, 5.2 -4.31, 0 -4.31 M14 -4.31 C10.92 -4.31, 7.84 -4.31, 0 -4.31 M0 -4.31 C0 -3.31, 0 -2.32, 0 0 M0 -4.31 C0 -2.61, 0 -0.91, 0 0 M0 0 C0 0, 0 0, 0 0 M0 0 C0 0, 0 0, 0 0" stroke="#00000000" stroke-width="1" fill="none"></path></g></g><g stroke-linecap="round"><g transform="translate(311.23870968818665 713.9741930961609) rotate(0 3.2322582006454468 -3.232257843017578)" fill-rule="evenodd"><path d="M0 0 L6.46 0 L6.46 -6.46 L0 -6.46 L0 0" stroke="none" stroke-width="0" fill="#aecbfa" fill-rule="evenodd"></path><path d="M0 0 C1.57 0, 3.14 0, 6.46 0 M0 0 C2.17 0, 4.35 0, 6.46 0 M6.46 0 C6.46 -1.51, 6.46 -3.02, 6.46 -6.46 M6.46 0 C6.46 -1.31, 6.46 -2.62, 6.46 -6.46 M6.46 -6.46 C4.4 -6.46, 2.34 -6.46, 0 -6.46 M6.46 -6.46 C4.99 -6.46, 3.52 -6.46, 0 -6.46 M0 -6.46 C0 -4.73, 0 -3, 0 0 M0 -6.46 C0 -3.9, 0 -1.34, 0 0 M0 0 C0 0, 0 0, 0 0 M0 0 C0 0, 0 0, 0 0" stroke="#00000000" stroke-width="1" fill="none"></path></g></g><g stroke-linecap="round" transform="translate(430 690) rotate(0 120 40)"><path d="M8 0 L235.5 0.5 L238 2 L239.5 4.5 L240 8 L239.5 75.5 L238 78 L235.5 79.5 L232 80 L4.5 79.5 L2 78 L0.5 75.5 L0 72 L0 8 L0.5 4.5 L2 2 L4.5 0.5 L8 0" stroke="none" stroke-width="0" fill="#FFF"></path><path d="M8 0 M8 0 C69.19 0, 130.38 0, 232 0 M8 0 C96.26 0, 184.51 0, 232 0 M232 0 C237.33 0, 240 2.67, 240 8 M232 0 C237.33 0, 240 2.67, 240 8 M240 8 C240 32.16, 240 56.32, 240 72 M240 8 C240 23.78, 240 39.56, 240 72 M240 72 C240 77.33, 237.33 80, 232 80 M240 72 C240 77.33, 237.33 80, 232 80 M232 80 C155.09 80, 78.17 80, 8 80 M232 80 C175.59 80, 119.18 80, 8 80 M8 80 C2.67 80, 0 77.33, 0 72 M8 80 C2.67 80, 0 77.33, 0 72 M0 72 C0 58.01, 0 44.01, 0 8 M0 72 C0 48.87, 0 25.73, 0 8 M0 8 C0 2.67, 2.67 0, 8 0 M0 8 C0 2.67, 2.67 0, 8 0" stroke="#202124" stroke-width="1" fill="none"></path></g><g transform="translate(446 706) rotate(0 43.5 9.5)"><text x="0" y="15" font-family="Helvetica, Segoe UI Emoji" font-size="16px" fill="#1A73E8" text-anchor="start" style="white-space: pre;" direction="ltr">Cloud Trace</text></g><g transform="translate(446 728) rotate(0 79 9.5)"><text x="0" y="15" font-family="Helvetica, Segoe UI Emoji" font-size="16px" fill="#202124" text-anchor="start" style="white-space: pre;" direction="ltr">OpenTelemetry traces</text></g><g stroke-linecap="round"><g transform="translate(641.9637460708618 720.0519638061523) rotate(0 5.220544338226318 -2.0882177352905273)" fill-rule="evenodd"><path d="M0 0 L10.44 0 L10.44 -4.18 L0 -4.18 L0 0" stroke="none" stroke-width="0" fill="#4285f4" fill-rule="evenodd"></path><path d="M0 0 C3.23 0, 6.46 0, 10.44 0 M0 0 C2.91 0, 5.82 0, 10.44 0 M10.44 0 C10.44 -1.15, 10.44 -2.31, 10.44 -4.18 M10.44 0 C10.44 -1.62, 10.44 -3.23, 10.44 -4.18 M10.44 -4.18 C6.54 -4.18, 2.64 -4.18, 0 -4.18 M10.44 -4.18 C7.79 -4.18, 5.14 -4.18, 0 -4.18 M0 -4.18 C0 -2.52, 0 -0.87, 0 0 M0 -4.18 C0 -3.33, 0 -2.48, 0 0 M0 0 C0 0, 0 0, 0 0 M0 0 C0 0, 0 0, 0 0" stroke="#00000000" stroke-width="1" fill="none"></path></g></g><g stroke-linecap="round"><g transform="translate(641.9637460708618 728.4048347473145) rotate(0 5.220544338226318 -2.0882177352905273)" fill-rule="evenodd"><path d="M0 0 L10.44 0 L10.44 -4.18 L0 -4.18 L0 0" stroke="none" stroke-width="0" fill="#4285f4" fill-rule="evenodd"></path><path d="M0 0 C2.85 0, 5.71 0, 10.44 0 M0 0 C3.22 0, 6.44 0, 10.44 0 M10.44 0 C10.44 -1.19, 10.44 -2.39, 10.44 -4.18 M10.44 0 C10.44 -1.16, 10.44 -2.33, 10.44 -4.18 M10.44 -4.18 C7.15 -4.18, 3.86 -4.18, 0 -4.18 M10.44 -4.18 C6.4 -4.18, 2.37 -4.18, 0 -4.18 M0 -4.18 C0 -2.85, 0 -1.52, 0 0 M0 -4.18 C0 -3.04, 0 -1.9, 0 0 M0 0 C0 0, 0 0, 0 0 M0 0 C0 0, 0 0, 0 0" stroke="#00000000" stroke-width="1" fill="none"></path></g></g><g stroke-linecap="round"><g transform="translate(637.7873110771179 728.4048347473145) rotate(0 2.0882174968719482 -2.0882177352905273)" fill-rule="evenodd"><path d="M0 0 L4.18 0 L4.18 -4.18 L0 -4.18 L0 0" stroke="none" stroke-width="0" fill="#669df6" fill-rule="evenodd"></path><path d="M0 0 C1.49 0, 2.97 0, 4.18 0 M0 0 C1.3 0, 2.59 0, 4.18 0 M4.18 0 C4.18 -1.01, 4.18 -2.01, 4.18 -4.18 M4.18 0 C4.18 -1.47, 4.18 -2.94, 4.18 -4.18 M4.18 -4.18 C3.15 -4.18, 2.13 -4.18, 0 -4.18 M4.18 -4.18 C3.24 -4.18, 2.31 -4.18, 0 -4.18 M0 -4.18 C0 -3.16, 0 -2.14, 0 0 M0 -4.18 C0 -3.01, 0 -1.84, 0 0 M0 0 C0 0, 0 0, 0 0 M0 0 C0 0, 0 0, 0 0" stroke="#00000000" stroke-width="1" fill="none"></path></g></g><g stroke-linecap="round"><g transform="translate(631.5226585865021 707.5226585865021) rotate(0 3.1323262453079224 2.0882173776626587)" fill-rule="evenodd"><path d="M0 0 L6.26 0 L6.26 4.18 L0 4.18 L0 0" stroke="none" stroke-width="0" fill="#669df6" fill-rule="evenodd"></path><path d="M0 0 C1.68 0, 3.35 0, 6.26 0 M0 0 C1.58 0, 3.16 0, 6.26 0 M6.26 0 C6.26 1.24, 6.26 2.48, 6.26 4.18 M6.26 0 C6.26 1.47, 6.26 2.94, 6.26 4.18 M6.26 4.18 C4.85 4.18, 3.43 4.18, 0 4.18 M6.26 4.18 C4.46 4.18, 2.65 4.18, 0 4.18 M0 4.18 C0 2.57, 0 0.96, 0 0 M0 4.18 C0 2.72, 0 1.27, 0 0 M0 0 C0 0, 0 0, 0 0 M0 0 C0 0, 0 0, 0 0" stroke="#00000000" stroke-width="1" fill="none"></path></g></g><g stroke-linecap="round"><g transform="translate(631.5226585865021 715.8755283355713) rotate(0 5.220543742179871 2.0882177352905273)" fill-rule="evenodd"><path d="M0 0 L10.44 0 L10.44 4.18 L0 4.18 L0 0" stroke="none" stroke-width="0" fill="#669df6" fill-rule="evenodd"></path><path d="M0 0 C4 0, 8 0, 10.44 0 M0 0 C2.52 0, 5.04 0, 10.44 0 M10.44 0 C10.44 0.91, 10.44 1.81, 10.44 4.18 M10.44 0 C10.44 1.21, 10.44 2.41, 10.44 4.18 M10.44 4.18 C7.74 4.18, 5.03 4.18, 0 4.18 M10.44 4.18 C7.68 4.18, 4.91 4.18, 0 4.18 M0 4.18 C0 2.76, 0 1.34, 0 0 M0 4.18 C0 3.25, 0 2.32, 0 0 M0 0 C0 0, 0 0, 0 0 M0 0 C0 0, 0 0, 0 0" stroke="#00000000" stroke-width="1" fill="none"></path></g></g><g stroke-linecap="round" transform="translate(750 690) rotate(0 120 40)"><path d="M8 0 L235.5 0.5 L238 2 L239.5 4.5 L240 8 L239.5 75.5 L238 78 L235.5 79.5 L232 80 L4.5 79.5 L2 78 L0.5 75.5 L0 72 L0 8 L0.5 4.5 L2 2 L4.5 0.5 L8 0" stroke="none" stroke-width="0" fill="#FFF"></path><path d="M8 0 M8 0 C58.13 0, 108.25 0, 232 0 M8 0 C81.41 0, 154.81 0, 232 0 M232 0 C237.33 0, 240 2.67, 240 8 M232 0 C237.33 0, 240 2.67, 240 8 M240 8 C240 25.57, 240 43.13, 240 72 M240 8 C240 32.13, 240 56.27, 240 72 M240 72 C240 77.33, 237.33 80, 232 80 M240 72 C240 77.33, 237.33 80, 232 80 M232 80 C157.36 80, 82.72 80, 8 80 M232 80 C145.82 80, 59.63 80, 8 80 M8 80 C2.67 80, 0 77.33, 0 72 M8 80 C2.67 80, 0 77.33, 0 72 M0 72 C0 57.51, 0 43.01, 0 8 M0 72 C0 48.47, 0 24.94, 0 8 M0 8 C0 2.67, 2.67 0, 8 0 M0 8 C0 2.67, 2.67 0, 8 0" stroke="#202124" stroke-width="1" fill="none"></path></g><g transform="translate(766 706) rotate(0 55 9.5)"><text x="0" y="15" font-family="Helvetica, Segoe UI Emoji" font-size="16px" fill="#1A73E8" text-anchor="start" style="white-space: pre;" direction="ltr">Error Reporting</text></g><g transform="translate(766 728) rotate(0 45.5 9.5)"><text x="0" y="15" font-family="Helvetica, Segoe UI Emoji" font-size="16px" fill="#202124" text-anchor="start" style="white-space: pre;" direction="ltr">Error reports</text></g><g stroke-linecap="round"><g transform="translate(956.779534816742 707.6000000238419) rotate(0 0.0018604397773742676 10.362790286540985)" fill-rule="evenodd"><path d="M0 0 L-5.18 5.18 L-5.18 15.55 L0 20.73 L5.18 20.73 L2.59 17.76 L1.3 17.76 L-2.21 14.25 L-2.21 6.48 L1.3 2.97 L2.59 2.97 L5.18 0 L0 0" stroke="none" stroke-width="0" fill="#669df6" fill-rule="evenodd"></path><path d="M0 0 C-1.96 1.96, -3.92 3.92, -5.18 5.18 M0 0 C-2.07 2.07, -4.14 4.14, -5.18 5.18 M-5.18 5.18 C-5.18 9, -5.18 12.82, -5.18 15.55 M-5.18 5.18 C-5.18 8.69, -5.18 12.2, -5.18 15.55 M-5.18 15.55 C-3.36 17.37, -1.54 19.19, 0 20.73 M-5.18 15.55 C-3.29 17.43, -1.4 19.32, 0 20.73 M0 20.73 C1.3 20.73, 2.59 20.73, 5.18 20.73 M0 20.73 C1.58 20.73, 3.16 20.73, 5.18 20.73 M5.18 20.73 C4.44 19.87, 3.69 19.02, 2.59 17.76 M5.18 20.73 C4.35 19.77, 3.52 18.82, 2.59 17.76 M2.59 17.76 C2.28 17.76, 1.96 17.76, 1.3 17.76 M2.59 17.76 C2.32 17.76, 2.06 17.76, 1.3 17.76 M1.3 17.76 C0.59 17.05, -0.13 16.34, -2.21 14.25 M1.3 17.76 C-0.05 16.41, -1.4 15.06, -2.21 14.25 M-2.21 14.25 C-2.21 12.6, -2.21 10.95, -2.21 6.48 M-2.21 14.25 C-2.21 11.15, -2.21 8.05, -2.21 6.48 M-2.21 6.48 C-1.4 5.66, -0.58 4.84, 1.3 2.97 M-2.21 6.48 C-1.09 5.35, 0.04 4.23, 1.3 2.97 M1.3 2.97 C1.8 2.97, 2.31 2.97, 2.59 2.97 M1.3 2.97 C1.61 2.97, 1.91 2.97, 2.59 2.97 M2.59 2.97 C3.46 1.97, 4.32 0.98, 5.18 0 M2.59 2.97 C3.25 2.21, 3.91 1.46, 5.18 0 M5.18 0 C3.72 0, 2.25 0, 0 0 M5.18 0 C3.19 0, 1.19 0, 0 0 M0 0 C0 0, 0 0, 0 0 M0 0 C0 0, 0 0, 0 0" stroke="transparent" stroke-width="1" fill="none"></path></g></g><g stroke-linecap="round"><g transform="translate(964.5525579452515 707.6000000238419) rotate(0 2.591627597808838 10.362790286540985)" fill-rule="evenodd"><path d="M0 0 L-2.59 2.97 L1.29 2.97 L4.81 6.48 L4.81 14.25 L1.29 17.76 L-2.59 17.76 L0 20.73 L2.59 20.73 L7.77 15.55 L7.77 5.18 L2.59 0 L0 0" stroke="none" stroke-width="0" fill="#669df6" fill-rule="evenodd"></path><path d="M0 0 C-0.67 0.76, -1.33 1.53, -2.59 2.97 M0 0 C-0.55 0.63, -1.11 1.27, -2.59 2.97 M-2.59 2.97 C-1.36 2.97, -0.13 2.97, 1.29 2.97 M-2.59 2.97 C-1.3 2.97, -0.01 2.97, 1.29 2.97 M1.29 2.97 C2.55 4.22, 3.8 5.47, 4.81 6.48 M1.29 2.97 C2.39 4.06, 3.48 5.15, 4.81 6.48 M4.81 6.48 C4.81 9.59, 4.81 12.69, 4.81 14.25 M4.81 6.48 C4.81 9.54, 4.81 12.61, 4.81 14.25 M4.81 14.25 C3.93 15.13, 3.05 16.01, 1.29 17.76 M4.81 14.25 C3.47 15.59, 2.13 16.93, 1.29 17.76 M1.29 17.76 C0.17 17.76, -0.96 17.76, -2.59 17.76 M1.29 17.76 C0.19 17.76, -0.91 17.76, -2.59 17.76 M-2.59 17.76 C-1.61 18.88, -0.63 20, 0 20.73 M-2.59 17.76 C-1.88 18.58, -1.17 19.39, 0 20.73 M0 20.73 C0.63 20.73, 1.27 20.73, 2.59 20.73 M0 20.73 C0.9 20.73, 1.8 20.73, 2.59 20.73 M2.59 20.73 C4.6 18.72, 6.6 16.72, 7.77 15.55 M2.59 20.73 C3.94 19.38, 5.28 18.04, 7.77 15.55 M7.77 15.55 C7.77 12.73, 7.77 9.92, 7.77 5.18 M7.77 15.55 C7.77 11.42, 7.77 7.29, 7.77 5.18 M7.77 5.18 C6.6 4.01, 5.44 2.84, 2.59 0 M7.77 5.18 C6.09 3.5, 4.42 1.82, 2.59 0 M2.59 0 C1.98 0, 1.36 0, 0 0 M2.59 0 C2.01 0, 1.42 0, 0 0 M0 0 C0 0, 0 0, 0 0 M0 0 C0 0, 0 0, 0 0" stroke="transparent" stroke-width="1" fill="none"></path></g></g><g stroke-linecap="round"><g transform="translate(961.9627904891968 723.1460456848145) rotate(0 -2.591627836227417 -5.183255434036255)" fill-rule="evenodd"><path d="M0 0 L-2.59 -2.59 L0 -5.18 L-2.59 -7.77 L0 -10.37 L-2.59 -10.37 L-5.18 -7.77 L-5.18 -2.59 L-2.59 0 L0 0" stroke="none" stroke-width="0" fill="#4285f4" fill-rule="evenodd"></path><path d="M0 0 C-0.56 -0.56, -1.12 -1.12, -2.59 -2.59 M0 0 C-0.86 -0.86, -1.72 -1.72, -2.59 -2.59 M-2.59 -2.59 C-1.78 -3.41, -0.96 -4.22, 0 -5.18 M-2.59 -2.59 C-1.91 -3.28, -1.22 -3.96, 0 -5.18 M0 -5.18 C-0.58 -5.77, -1.17 -6.35, -2.59 -7.77 M0 -5.18 C-0.56 -5.74, -1.11 -6.3, -2.59 -7.77 M-2.59 -7.77 C-1.9 -8.47, -1.21 -9.16, 0 -10.37 M-2.59 -7.77 C-1.73 -8.63, -0.88 -9.49, 0 -10.37 M0 -10.37 C-0.55 -10.37, -1.1 -10.37, -2.59 -10.37 M0 -10.37 C-0.98 -10.37, -1.96 -10.37, -2.59 -10.37 M-2.59 -10.37 C-3.24 -9.72, -3.89 -9.07, -5.18 -7.77 M-2.59 -10.37 C-3.5 -9.46, -4.41 -8.55, -5.18 -7.77 M-5.18 -7.77 C-5.18 -6.56, -5.18 -5.34, -5.18 -2.59 M-5.18 -7.77 C-5.18 -5.93, -5.18 -4.09, -5.18 -2.59 M-5.18 -2.59 C-4.55 -1.96, -3.92 -1.33, -2.59 0 M-5.18 -2.59 C-4.61 -2.02, -4.04 -1.45, -2.59 0 M-2.59 0 C-2.01 0, -1.43 0, 0 0 M-2.59 0 C-1.6 0, -0.6 0, 0 0 M0 0 C0 0, 0 0, 0 0 M0 0 C0 0, 0 0, 0 0" stroke="transparent" stroke-width="1" fill="none"></path></g></g><g stroke-linecap="round"><g transform="translate(964.5525579452515 712.779534816742) rotate(0 0.0018601417541503906 5.183255434036255)" fill-rule="evenodd"><path d="M0 0 L-2.59 2.59 L0 5.18 L-2.59 7.77 L0 10.37 L2.59 7.77 L2.59 2.59 L0 0" stroke="none" stroke-width="0" fill="#4285f4" fill-rule="evenodd"></path><path d="M0 0 C-0.91 0.91, -1.81 1.82, -2.59 2.59 M0 0 C-0.78 0.78, -1.55 1.56, -2.59 2.59 M-2.59 2.59 C-1.71 3.47, -0.83 4.35, 0 5.18 M-2.59 2.59 C-2.02 3.17, -1.45 3.74, 0 5.18 M0 5.18 C-0.89 6.07, -1.77 6.95, -2.59 7.77 M0 5.18 C-0.93 6.12, -1.86 7.05, -2.59 7.77 M-2.59 7.77 C-1.98 8.39, -1.36 9, 0 10.37 M-2.59 7.77 C-1.76 8.6, -0.93 9.43, 0 10.37 M0 10.37 C0.72 9.65, 1.43 8.93, 2.59 7.77 M0 10.37 C0.57 9.8, 1.14 9.23, 2.59 7.77 M2.59 7.77 C2.59 5.8, 2.59 3.83, 2.59 2.59 M2.59 7.77 C2.59 6.48, 2.59 5.19, 2.59 2.59 M2.59 2.59 C1.72 1.72, 0.84 0.84, 0 0 M2.59 2.59 C1.76 1.76, 0.93 0.93, 0 0 M0 0 C0 0, 0 0, 0 0 M0 0 C0 0, 0 0, 0 0" stroke="transparent" stroke-width="1" fill="none"></path></g></g><g stroke-linecap="round" transform="translate(110 350) rotate(0 120 40)"><path d="M8 0 L235.5 0.5 L238 2 L239.5 4.5 L240 8 L239.5 75.5 L238 78 L235.5 79.5 L232 80 L4.5 79.5 L2 78 L0.5 75.5 L0 72 L0 8 L0.5 4.5 L2 2 L4.5 0.5 L8 0" stroke="none" stroke-width="0" fill="#FFF"></path><path d="M8 0 M8 0 C63.79 0, 119.57 0, 232 0 M8 0 C85.07 0, 162.14 0, 232 0 M232 0 C237.33 0, 240 2.67, 240 8 M232 0 C237.33 0, 240 2.67, 240 8 M240 8 C240 28.62, 240 49.23, 240 72 M240 8 C240 25.03, 240 42.07, 240 72 M240 72 C240 77.33, 237.33 80, 232 80 M240 72 C240 77.33, 237.33 80, 232 80 M232 80 C146.23 80, 60.45 80, 8 80 M232 80 C185.76 80, 139.51 80, 8 80 M8 80 C2.67 80, 0 77.33, 0 72 M8 80 C2.67 80, 0 77.33, 0 72 M0 72 C0 48.34, 0 24.69, 0 8 M0 72 C0 48.81, 0 25.63, 0 8 M0 8 C0 2.67, 2.67 0, 8 0 M0 8 C0 2.67, 2.67 0, 8 0" stroke="#202124" stroke-width="1" fill="none"></path></g><g transform="translate(126 366) rotate(0 31.5 9.5)"><text x="0" y="15" font-family="Helvetica, Segoe UI Emoji" font-size="16px" fill="#1A73E8" text-anchor="start" style="white-space: pre;" direction="ltr">Firebase</text></g><g transform="translate(126 388) rotate(0 17 9.5)"><text x="0" y="15" font-family="Helvetica, Segoe UI Emoji" font-size="16px" fill="#202124" text-anchor="start" style="white-space: pre;" direction="ltr">Web</text></g><g stroke-linecap="round"><g transform="translate(322.5050001144409 370.28249979019165) rotate(0 -2.9417500495910645 5.720500648021698)" fill-rule="evenodd"><path d="M0 0 L0 0 L-0.2 -0.21 L-0.46 -0.28 L-0.73 -0.21 L-0.92 0 L-2.1 2.21 L-4.8 -3.01 L-4.8 -3.01 L-5.04 -3.24 L-5.35 -3.27 L-5.63 -3.14 L-5.78 -2.85 L-8.5 14.72 L2.62 5.09 L0 0 L0 0" stroke="none" stroke-width="0" fill="#ffa000" fill-rule="evenodd"></path><path d="M0 0 C0 0, 0 0, 0 0 M0 0 C0 0, 0 0, 0 0 M0 0 C-0.07 -0.07, -0.14 -0.15, -0.2 -0.21 M0 0 C-0.07 -0.07, -0.14 -0.15, -0.2 -0.21 M-0.2 -0.21 C-0.26 -0.23, -0.33 -0.25, -0.46 -0.28 M-0.2 -0.21 C-0.29 -0.24, -0.39 -0.26, -0.46 -0.28 M-0.46 -0.28 C-0.53 -0.26, -0.6 -0.25, -0.73 -0.21 M-0.46 -0.28 C-0.55 -0.26, -0.65 -0.23, -0.73 -0.21 M-0.73 -0.21 C-0.78 -0.16, -0.83 -0.1, -0.92 0 M-0.73 -0.21 C-0.8 -0.14, -0.87 -0.06, -0.92 0 M-0.92 0 C-1.33 0.77, -1.74 1.55, -2.1 2.21 M-0.92 0 C-1.21 0.54, -1.5 1.08, -2.1 2.21 M-2.1 2.21 C-3.16 0.16, -4.23 -1.9, -4.8 -3.01 M-2.1 2.21 C-2.81 0.83, -3.53 -0.56, -4.8 -3.01 M-4.8 -3.01 C-4.8 -3.01, -4.8 -3.01, -4.8 -3.01 M-4.8 -3.01 C-4.8 -3.01, -4.8 -3.01, -4.8 -3.01 M-4.8 -3.01 C-4.87 -3.08, -4.95 -3.14, -5.04 -3.24 M-4.8 -3.01 C-4.86 -3.06, -4.91 -3.11, -5.04 -3.24 M-5.04 -3.24 C-5.15 -3.25, -5.26 -3.26, -5.35 -3.27 M-5.04 -3.24 C-5.15 -3.25, -5.25 -3.26, -5.35 -3.27 M-5.35 -3.27 C-5.42 -3.24, -5.48 -3.21, -5.63 -3.14 M-5.35 -3.27 C-5.45 -3.23, -5.55 -3.18, -5.63 -3.14 M-5.63 -3.14 C-5.68 -3.03, -5.74 -2.92, -5.78 -2.85 M-5.63 -3.14 C-5.67 -3.07, -5.7 -2.99, -5.78 -2.85 M-5.78 -2.85 C-6.82 3.88, -7.87 10.61, -8.5 14.72 M-5.78 -2.85 C-6.79 3.65, -7.79 10.15, -8.5 14.72 M-8.5 14.72 C-4.49 11.24, -0.48 7.77, 2.62 5.09 M-8.5 14.72 C-4.92 11.62, -1.34 8.52, 2.62 5.09 M2.62 5.09 C1.81 3.52, 1 1.94, 0 0 M2.62 5.09 C1.75 3.41, 0.89 1.72, 0 0 M0 0 C0 0, 0 0, 0 0 M0 0 C0 0, 0 0, 0 0 M0 0 C0 0, 0 0, 0 0 M0 0 C0 0, 0 0, 0 0" stroke="#00000000" stroke-width="1" fill="none"></path></g></g><g stroke-linecap="round"><g transform="translate(322.897500038147 377.30200004577637) rotate(0 -4.447999954223633 1.4452502727508545)" fill-rule="evenodd"><path d="M0 0 L-2.49 -4.81 L-8.9 7.7 L0 0" stroke="none" stroke-width="0" fill="#f57f17" fill-rule="evenodd"></path><path d="M0 0 C-0.63 -1.22, -1.26 -2.43, -2.49 -4.81 M0 0 C-0.94 -1.82, -1.89 -3.64, -2.49 -4.81 M-2.49 -4.81 C-4.38 -1.11, -6.27 2.58, -8.9 7.7 M-2.49 -4.81 C-4.04 -1.78, -5.59 1.24, -8.9 7.7 M-8.9 7.7 C-6.54 5.66, -4.19 3.62, 0 0 M-8.9 7.7 C-6.14 5.31, -3.38 2.93, 0 0 M0 0 C0 0, 0 0, 0 0 M0 0 C0 0, 0 0, 0 0" stroke="#00000000" stroke-width="1" fill="none"></path></g></g><g stroke-linecap="round"><g transform="translate(327.929500579834 371.9190001487732) rotate(0 -5.928750514984131 8.333544492721558)" fill-rule="evenodd"><path d="M0 0 L0 0 L-0.11 -0.24 L-0.32 -0.39 L-0.56 -0.41 L-0.81 -0.31 L-0.85 -0.27 L-13.93 13.08 L-6.69 16.89 L-6.69 16.89 L-6.33 17.03 L-5.95 17.08 L-5.57 17.03 L-5.21 16.89 L2.07 13.08 L0 0 L0 0" stroke="none" stroke-width="0" fill="#ffca28" fill-rule="evenodd"></path><path d="M0 0 C0 0, 0 0, 0 0 M0 0 C0 0, 0 0, 0 0 M0 0 C-0.03 -0.08, -0.07 -0.15, -0.11 -0.24 M0 0 C-0.03 -0.08, -0.07 -0.15, -0.11 -0.24 M-0.11 -0.24 C-0.19 -0.3, -0.27 -0.35, -0.32 -0.39 M-0.11 -0.24 C-0.16 -0.28, -0.2 -0.31, -0.32 -0.39 M-0.32 -0.39 C-0.39 -0.39, -0.46 -0.4, -0.56 -0.41 M-0.32 -0.39 C-0.38 -0.39, -0.45 -0.4, -0.56 -0.41 M-0.56 -0.41 C-0.65 -0.37, -0.74 -0.33, -0.81 -0.31 M-0.56 -0.41 C-0.63 -0.39, -0.69 -0.36, -0.81 -0.31 M-0.81 -0.31 C-0.82 -0.3, -0.83 -0.28, -0.85 -0.27 M-0.81 -0.31 C-0.82 -0.3, -0.83 -0.29, -0.85 -0.27 M-0.85 -0.27 C-6.02 5.01, -11.19 10.29, -13.93 13.08 M-0.85 -0.27 C-3.54 2.48, -6.23 5.23, -13.93 13.08 M-13.93 13.08 C-11.99 14.1, -10.06 15.12, -6.69 16.89 M-13.93 13.08 C-11.46 14.38, -9 15.67, -6.69 16.89 M-6.69 16.89 C-6.69 16.89, -6.69 16.89, -6.69 16.89 M-6.69 16.89 C-6.69 16.89, -6.69 16.89, -6.69 16.89 M-6.69 16.89 C-6.6 16.93, -6.5 16.96, -6.33 17.03 M-6.69 16.89 C-6.58 16.93, -6.46 16.98, -6.33 17.03 M-6.33 17.03 C-6.24 17.04, -6.15 17.06, -5.95 17.08 M-6.33 17.03 C-6.22 17.05, -6.11 17.06, -5.95 17.08 M-5.95 17.08 C-5.86 17.07, -5.77 17.06, -5.57 17.03 M-5.95 17.08 C-5.82 17.07, -5.7 17.05, -5.57 17.03 M-5.57 17.03 C-5.45 16.99, -5.33 16.94, -5.21 16.89 M-5.57 17.03 C-5.47 16.99, -5.38 16.95, -5.21 16.89 M-5.21 16.89 C-3.15 15.81, -1.09 14.74, 2.07 13.08 M-5.21 16.89 C-3.54 16.01, -1.86 15.14, 2.07 13.08 M2.07 13.08 C1.64 10.38, 1.22 7.68, 0 0 M2.07 13.08 C1.47 9.29, 0.87 5.5, 0 0 M0 0 C0 0, 0 0, 0 0 M0 0 C0 0, 0 0, 0 0 M0 0 C0 0, 0 0, 0 0 M0 0 C0 0, 0 0, 0 0" stroke="#00000000" stroke-width="1" fill="none"></path></g></g><g stroke-linecap="round"><g transform="translate(510 190) rotate(0 -100 79.5)"><path d="M0 0 C0 14.78, 0 29.56, 0 40 M0 0 C0 14.49, 0 28.98, 0 40 M0 40 C-75.35 40, -150.69 40, -200 40 M0 40 C-58.27 40, -116.55 40, -200 40 M-200 40 C-200 64.62, -200 89.24, -200 159 M-200 40 C-200 83.52, -200 127.05, -200 159" stroke="#202124" stroke-width="1" fill="none"></path></g><g transform="translate(510 190) rotate(0 -100 79.5)"><path d="M-200 159 L-206.34 145.41 L-193.66 145.41 L-200 159" stroke="none" stroke-width="0" fill="#202124" fill-rule="evenodd"></path><path d="M-200 159 C-202.34 153.98, -204.69 148.95, -206.34 145.41 M-200 159 C-202.3 154.08, -204.59 149.15, -206.34 145.41 M-206.34 145.41 C-201.56 145.41, -196.79 145.41, -193.66 145.41 M-206.34 145.41 C-202.65 145.41, -198.95 145.41, -193.66 145.41 M-193.66 145.41 C-194.97 148.22, -196.28 151.03, -200 159 M-193.66 145.41 C-195.98 150.38, -198.3 155.35, -200 159 M-200 159 C-200 159, -200 159, -200 159 M-200 159 C-200 159, -200 159, -200 159" stroke="#202124" stroke-width="1" fill="none"></path></g></g><g stroke-linecap="round" transform="translate(510 610) rotate(0 16 16)"><path d="M32 16 C32 16.93, 31.92 17.87, 31.76 18.78 C31.6 19.69, 31.35 20.6, 31.04 21.47 C30.72 22.34, 30.32 23.2, 29.86 24 C29.39 24.8, 28.85 25.58, 28.26 26.28 C27.66 26.99, 26.99 27.66, 26.28 28.26 C25.58 28.85, 24.8 29.39, 24 29.86 C23.2 30.32, 22.34 30.72, 21.47 31.04 C20.6 31.35, 19.69 31.6, 18.78 31.76 C17.87 31.92, 16.93 32, 16 32 C15.07 32, 14.13 31.92, 13.22 31.76 C12.31 31.6, 11.4 31.35, 10.53 31.04 C9.66 30.72, 8.8 30.32, 8 29.86 C7.2 29.39, 6.42 28.85, 5.72 28.26 C5.01 27.66, 4.34 26.99, 3.74 26.28 C3.15 25.58, 2.61 24.8, 2.14 24 C1.68 23.2, 1.28 22.34, 0.96 21.47 C0.65 20.6, 0.4 19.69, 0.24 18.78 C0.08 17.87, 0 16.93, 0 16 C0 15.07, 0.08 14.13, 0.24 13.22 C0.4 12.31, 0.65 11.4, 0.96 10.53 C1.28 9.66, 1.68 8.8, 2.14 8 C2.61 7.2, 3.15 6.42, 3.74 5.72 C4.34 5.01, 5.01 4.34, 5.72 3.74 C6.42 3.15, 7.2 2.61, 8 2.14 C8.8 1.68, 9.66 1.28, 10.53 0.96 C11.4 0.65, 12.31 0.4, 13.22 0.24 C14.13 0.08, 15.07 0, 16 0 C16.93 0, 17.87 0.08, 18.78 0.24 C19.69 0.4, 20.6 0.65, 21.47 0.96 C22.34 1.28, 23.2 1.68, 24 2.14 C24.8 2.61, 25.58 3.15, 26.28 3.74 C26.99 4.34, 27.66 5.01, 28.26 5.72 C28.85 6.42, 29.39 7.2, 29.86 8 C30.32 8.8, 30.72 9.66, 31.04 10.53 C31.35 11.4, 31.6 12.31, 31.76 13.22 C31.92 14.13, 31.96 15.54, 32 16 C32.04 16.46, 32.04 15.54, 32 16" stroke="none" stroke-width="0" fill="#202124"></path><path d="M32 16 C32 16.93, 31.92 17.87, 31.76 18.78 C31.6 19.69, 31.35 20.6, 31.04 21.47 C30.72 22.34, 30.32 23.2, 29.86 24 C29.39 24.8, 28.85 25.58, 28.26 26.28 C27.66 26.99, 26.99 27.66, 26.28 28.26 C25.58 28.85, 24.8 29.39, 24 29.86 C23.2 30.32, 22.34 30.72, 21.47 31.04 C20.6 31.35, 19.69 31.6, 18.78 31.76 C17.87 31.92, 16.93 32, 16 32 C15.07 32, 14.13 31.92, 13.22 31.76 C12.31 31.6, 11.4 31.35, 10.53 31.04 C9.66 30.72, 8.8 30.32, 8 29.86 C7.2 29.39, 6.42 28.85, 5.72 28.26 C5.01 27.66, 4.34 26.99, 3.74 26.28 C3.15 25.58, 2.61 24.8, 2.14 24 C1.68 23.2, 1.28 22.34, 0.96 21.47 C0.65 20.6, 0.4 19.69, 0.24 18.78 C0.08 17.87, 0 16.93, 0 16 C0 15.07, 0.08 14.13, 0.24 13.22 C0.4 12.31, 0.65 11.4, 0.96 10.53 C1.28 9.66, 1.68 8.8, 2.14 8 C2.61 7.2, 3.15 6.42, 3.74 5.72 C4.34 5.01, 5.01 4.34, 5.72 3.74 C6.42 3.15, 7.2 2.61, 8 2.14 C8.8 1.68, 9.66 1.28, 10.53 0.96 C11.4 0.65, 12.31 0.4, 13.22 0.24 C14.13 0.08, 15.07 0, 16 0 C16.93 0, 17.87 0.08, 18.78 0.24 C19.69 0.4, 20.6 0.65, 21.47 0.96 C22.34 1.28, 23.2 1.68, 24 2.14 C24.8 2.61, 25.58 3.15, 26.28 3.74 C26.99 4.34, 27.66 5.01, 28.26 5.72 C28.85 6.42, 29.39 7.2, 29.86 8 C30.32 8.8, 30.72 9.66, 31.04 10.53 C31.35 11.4, 31.6 12.31, 31.76 13.22 C31.92 14.13, 31.96 15.54, 32 16 C32.04 16.46, 32.04 15.54, 32 16" stroke="#202124" stroke-width="2" fill="none"></path></g><g transform="translate(520.5 618) rotate(0 4.5 8)"><text x="4.5" y="13" font-family="Helvetica, Segoe UI Emoji" font-size="14px" fill="#FFFFFF" text-anchor="middle" style="white-space: pre;" direction="ltr">6</text></g><g stroke-linecap="round"><g transform="translate(670 390) rotate(0 39.5 0)"><path d="M0 0 C22.86 0, 45.73 0, 79 0" stroke="#202124" stroke-width="1.5" fill="none" stroke-dasharray="1.5 7"></path></g><g transform="translate(670 390) rotate(0 39.5 0)"><path d="M79 0 L65.41 6.34 L65.41 -6.34 L79 0" stroke="none" stroke-width="0" fill="#202124" fill-rule="evenodd"></path><path d="M79 0 C75.07 1.83, 71.13 3.67, 65.41 6.34 M65.41 6.34 C65.41 2.8, 65.41 -0.73, 65.41 -6.34 M65.41 -6.34 C69.78 -4.3, 74.16 -2.26, 79 0 M79 0 C79 0, 79 0, 79 0" stroke="#202124" stroke-width="1.5" fill="none"></path></g></g><g stroke-linecap="round"><g transform="translate(550 430) rotate(0 -80 49.5)"><path d="M0 0 C0 9.14, 0 18.28, 0 40 M0 0 C0 11.12, 0 22.25, 0 40 M0 40 C-56.07 40, -112.13 40, -160 40 M0 40 C-63.44 40, -126.89 40, -160 40 M-160 40 C-160 55.05, -160 70.1, -160 99 M-160 40 C-160 54.78, -160 69.56, -160 99" stroke="#202124" stroke-width="1" fill="none"></path></g><g transform="translate(550 430) rotate(0 -80 49.5)"><path d="M-160 99 L-166.34 85.41 L-153.66 85.41 L-160 99" stroke="none" stroke-width="0" fill="#202124" fill-rule="evenodd"></path><path d="M-160 99 C-161.45 95.89, -162.9 92.79, -166.34 85.41 M-160 99 C-161.76 95.22, -163.53 91.44, -166.34 85.41 M-166.34 85.41 C-161.9 85.41, -157.45 85.41, -153.66 85.41 M-166.34 85.41 C-161.31 85.41, -156.28 85.41, -153.66 85.41 M-153.66 85.41 C-155.28 88.87, -156.89 92.34, -160 99 M-153.66 85.41 C-155.25 88.81, -156.84 92.22, -160 99 M-160 99 C-160 99, -160 99, -160 99 M-160 99 C-160 99, -160 99, -160 99" stroke="#202124" stroke-width="1" fill="none"></path></g></g><g stroke-linecap="round"><g transform="translate(550 430) rotate(0 90 49.5)"><path d="M0 0 C0 8.03, 0 16.06, 0 40 M0 0 C0 8.44, 0 16.88, 0 40 M0 40 C70.25 40, 140.51 40, 180 40 M0 40 C58.47 40, 116.93 40, 180 40 M180 40 C180 55.15, 180 70.3, 180 99 M180 40 C180 61.74, 180 83.48, 180 99" stroke="#202124" stroke-width="1" fill="none"></path></g><g transform="translate(550 430) rotate(0 90 49.5)"><path d="M180 99 L173.66 85.41 L186.34 85.41 L180 99" stroke="none" stroke-width="0" fill="#202124" fill-rule="evenodd"></path><path d="M180 99 C178.73 96.27, 177.45 93.54, 173.66 85.41 M180 99 C178.66 96.13, 177.33 93.26, 173.66 85.41 M173.66 85.41 C178.61 85.41, 183.56 85.41, 186.34 85.41 M173.66 85.41 C177.78 85.41, 181.9 85.41, 186.34 85.41 M186.34 85.41 C184.71 88.9, 183.08 92.39, 180 99 M186.34 85.41 C184 90.41, 181.67 95.42, 180 99 M180 99 C180 99, 180 99, 180 99 M180 99 C180 99, 180 99, 180 99" stroke="#202124" stroke-width="1" fill="none"></path></g></g><g stroke-linecap="round"><g transform="translate(350 390) rotate(0 40 0)"><path d="M0 0 C24.13 0, 48.27 0, 80 0 M0 0 C19.94 0, 39.89 0, 80 0" stroke="#202124" stroke-width="1" fill="none"></path></g><g transform="translate(350 390) rotate(0 40 0)"><path d="M80 0 L66.41 6.34 L66.41 -6.34 L80 0" stroke="none" stroke-width="0" fill="#202124" fill-rule="evenodd"></path><path d="M80 0 C75.9 1.91, 71.8 3.82, 66.41 6.34 M80 0 C76.61 1.58, 73.22 3.16, 66.41 6.34 M66.41 6.34 C66.41 2.48, 66.41 -1.37, 66.41 -6.34 M66.41 6.34 C66.41 3.65, 66.41 0.97, 66.41 -6.34 M66.41 -6.34 C70.58 -4.39, 74.76 -2.44, 80 0 M66.41 -6.34 C71.51 -3.96, 76.62 -1.58, 80 0 M80 0 C80 0, 80 0, 80 0 M80 0 C80 0, 80 0, 80 0" stroke="#202124" stroke-width="1" fill="none"></path></g></g><g stroke-linecap="round"><g transform="translate(550 430) rotate(0 0 130)"><path d="M0 0 C0 84.52, 0 169.04, 0 260 M0 0 C0 59.08, 0 118.16, 0 260" stroke="#202124" stroke-width="1" fill="none"></path></g><g transform="translate(550 430) rotate(0 0 130)"><path d="M0 260 L-6.34 246.41 L6.34 246.41 L0 260" stroke="none" stroke-width="0" fill="#202124" fill-rule="evenodd"></path><path d="M0 260 C-2.06 255.58, -4.12 251.16, -6.34 246.41 M0 260 C-1.44 256.91, -2.88 253.82, -6.34 246.41 M-6.34 246.41 C-1.31 246.41, 3.73 246.41, 6.34 246.41 M-6.34 246.41 C-1.7 246.41, 2.94 246.41, 6.34 246.41 M6.34 246.41 C3.84 251.76, 1.35 257.11, 0 260 M6.34 246.41 C4.66 250, 2.99 253.59, 0 260 M0 260 C0 260, 0 260, 0 260 M0 260 C0 260, 0 260, 0 260" stroke="#202124" stroke-width="1" fill="none"></path></g></g><g stroke-linecap="round"><g transform="translate(550 430) rotate(0 -160 130)"><path d="M0 0 C0 50.35, 0 100.7, 0 220 M0 0 C0 84.47, 0 168.93, 0 220 M0 220 C-108.01 220, -216.03 220, -320 220 M0 220 C-93.77 220, -187.53 220, -320 220 M-320 220 C-320 229.53, -320 239.07, -320 260 M-320 220 C-320 235.53, -320 251.06, -320 260" stroke="#202124" stroke-width="1" fill="none"></path></g><g transform="translate(550 430) rotate(0 -160 130)"><path d="M-320 260 L-326.34 246.41 L-313.66 246.41 L-320 260" stroke="none" stroke-width="0" fill="#202124" fill-rule="evenodd"></path><path d="M-320 260 C-321.45 256.89, -322.9 253.78, -326.34 246.41 M-320 260 C-322.43 254.78, -324.87 249.56, -326.34 246.41 M-326.34 246.41 C-322.06 246.41, -317.78 246.41, -313.66 246.41 M-326.34 246.41 C-322.62 246.41, -318.91 246.41, -313.66 246.41 M-313.66 246.41 C-315.17 249.65, -316.68 252.89, -320 260 M-313.66 246.41 C-316.12 251.68, -318.58 256.96, -320 260 M-320 260 C-320 260, -320 260, -320 260 M-320 260 C-320 260, -320 260, -320 260" stroke="#202124" stroke-width="1" fill="none"></path></g></g><g stroke-linecap="round"><g transform="translate(550 430) rotate(0 160 130)"><path d="M0 0 C0 76.34, 0 152.68, 0 220 M0 0 C0 87.88, 0 175.77, 0 220 M0 220 C115.69 220, 231.38 220, 320 220 M0 220 C80.53 220, 161.05 220, 320 220 M320 220 C320 228.99, 320 237.99, 320 260 M320 220 C320 229.98, 320 239.97, 320 260" stroke="#202124" stroke-width="1" fill="none"></path></g><g transform="translate(550 430) rotate(0 160 130)"><path d="M320 260 L313.66 246.41 L326.34 246.41 L320 260" stroke="none" stroke-width="0" fill="#202124" fill-rule="evenodd"></path><path d="M320 260 C317.8 255.28, 315.6 250.57, 313.66 246.41 M320 260 C317.47 254.57, 314.94 249.14, 313.66 246.41 M313.66 246.41 C318.24 246.41, 322.83 246.41, 326.34 246.41 M313.66 246.41 C316.85 246.41, 320.04 246.41, 326.34 246.41 M326.34 246.41 C324.91 249.46, 323.49 252.52, 320 260 M326.34 246.41 C324.76 249.8, 323.17 253.19, 320 260 M320 260 C320 260, 320 260, 320 260 M320 260 C320 260, 320 260, 320 260" stroke="#202124" stroke-width="1" fill="none"></path></g></g></svg>